<svg xmlns="http://www.w3.org/2000/svg" viewBox="0 0 52 52">
  <title>Slate</title>
  <g fill="#fff">
    <path d="M18.51 42.02L8.22 36.2V15.8l10.29-5.82V6.06l-12.02 6.8-1.74.98v24.32l1.74.98 12.02 6.8v-3.92zM45.83 12.86L33.77 6.11v3.92l10.31 5.77v20.4l-10.31 5.77v3.92l12.06-6.75 1.75-.98V13.84l-1.75-.98z"/>
    <path d="M20.34 29.48l5.8-3.32 5.78 3.31v6.59l2.32-1.33V18.84l-8.11-4.65L18 18.84v15.89l2.32 1.33zm11.58-2.66l-3.47-2 3.47-2zm-11.58-6.66l5.79-3.31 5.79 3.31-5.78 3.31-5.8-3.32zm0 2.68l3.48 2-3.48 2z"/>
  </g>
</svg>
