<?xml version="1.0" encoding="utf-8"?>
<!-- Generator: Adobe Illustrator 17.1.0, SVG Export Plug-In . SVG Version: 6.00 Build 0)  -->
<!DOCTYPE svg PUBLIC "-//W3C//DTD SVG 1.1//EN" "http://www.w3.org/Graphics/SVG/1.1/DTD/svg11.dtd">
<svg version="1.1" id="Layer_1" xmlns="http://www.w3.org/2000/svg" xmlns:xlink="http://www.w3.org/1999/xlink" x="0px" y="0px"
	 viewBox="0 0 13.7 12" enable-background="new 0 0 13.7 12" xml:space="preserve">
<g>
	<g>
		<path fill="#14808F" d="M0.1,3.4L0.1,3.4L0,3.4L0.1,3.4z M11.1,8.5c-0.6,0-1.2-0.3-1.6-0.7L4.8,3C4,2.1,2.9,1.7,1.8,1.7H0.1v1.7
			h1.5c0.7,0,1.3,0.3,1.8,0.8l4.7,4.8c0.9,0.8,1.7,1.2,3,1.3V12l2.6-2.6l-2.6-2.6V8.5z M9.5,4.2c0.4-0.4,1-0.7,1.6-0.7v1.7l2.6-2.6
			L11.2,0v1.7l-0.1-0.1c-1.1,0-2,0.5-2.8,1.3l-0.9,1l1.3,1.3L9.5,4.2z"/>
	</g>
</g>
</svg>
