<?xml version="1.0" encoding="utf-8"?>
<!-- Generator: Adobe Illustrator 17.1.0, SVG Export Plug-In . SVG Version: 6.00 Build 0)  -->
<!DOCTYPE svg PUBLIC "-//W3C//DTD SVG 1.1//EN" "http://www.w3.org/Graphics/SVG/1.1/DTD/svg11.dtd">
<svg version="1.1" id="Layer_1" xmlns="http://www.w3.org/2000/svg" xmlns:xlink="http://www.w3.org/1999/xlink" x="0px" y="0px"
	 width="12px" height="12px" viewBox="0 0 12 12" enable-background="new 0 0 12 12" xml:space="preserve">
<g>
	<g>
		<path fill="#57A0E7" d="M0.1,3.7L0.1,3.7L0.1,3.7L0.1,3.7z M9.7,8.2c-0.5,0-1.1-0.3-1.4-0.6L4.2,3.4C3.5,2.6,2.5,2.2,1.6,2.2H0.1
			v1.5h1.3C2,3.7,2.5,4,3,4.4l4.1,4.2c0.8,0.7,1.5,1.1,2.6,1.1v1.5L12,9L9.7,6.7V8.2z M8.3,4.4C8.7,4,9.2,3.8,9.7,3.8v1.5L12,3
			L9.8,0.7v1.5L9.7,2.1c-1,0-1.8,0.4-2.5,1.1l-0.7,1l1.1,1.1L8.3,4.4z"/>
	</g>
</g>
</svg>
