<?xml version="1.0" encoding="utf-8"?>
<!-- Generator: Adobe Illustrator 17.1.0, SVG Export Plug-In . SVG Version: 6.00 Build 0)  -->
<!DOCTYPE svg PUBLIC "-//W3C//DTD SVG 1.1//EN" "http://www.w3.org/Graphics/SVG/1.1/DTD/svg11.dtd">
<svg version="1.1" id="Layer_1" xmlns="http://www.w3.org/2000/svg" xmlns:xlink="http://www.w3.org/1999/xlink" x="0px" y="0px"
	 width="17px" height="17px" viewBox="0 0 17 17" enable-background="new 0 0 17 17" xml:space="preserve">
<path fill="#57A0E7" d="M8.5,0C3.8,0,0,3.8,0,8.4c0,3.7,2.5,6.9,5.8,8c0.4,0.1,0.6-0.2,0.6-0.4c0-0.2,0-0.8,0-1.4
	c-2.4,0.5-2.8-1.1-2.8-1.1c-0.4-0.9-0.9-1.2-0.9-1.2c-0.8-0.6,0.1-0.5,0.1-0.5C3.5,11.9,4,12.7,4,12.7c0.8,1.3,2,0.9,2.5,0.7
	c0.1-0.6,0.3-0.9,0.6-1.1c-2-0.3-4-1.1-4-4.3c0-0.9,0.4-1.7,0.9-2.3C3.9,5.5,3.6,4.6,4.1,3.5c0,0,0.8-0.2,2.4,0.9
	c0.7-0.2,1.3-0.3,2.1-0.3s1.4,0.1,2.2,0.3C12.3,3.2,13,3.5,13,3.5c0.5,1.1,0.2,2,0.1,2.3C13.7,6.3,14,7.1,14,8c0,3.2-2,4-3.9,4.2
	c0.3,0.3,0.6,0.8,0.6,1.5c0,1.1,0,2.1,0,2.3s0.2,0.5,0.6,0.4c3.4-1.1,5.8-4.3,5.8-8C17,3.8,13.2,0,8.5,0z"/>
</svg>
