<?xml version="1.0" encoding="utf-8"?>
<!-- Generator: Adobe Illustrator 17.1.0, SVG Export Plug-In . SVG Version: 6.00 Build 0)  -->
<!DOCTYPE svg PUBLIC "-//W3C//DTD SVG 1.1//EN" "http://www.w3.org/Graphics/SVG/1.1/DTD/svg11.dtd">
<svg version="1.1" id="Layer_1" xmlns="http://www.w3.org/2000/svg" xmlns:xlink="http://www.w3.org/1999/xlink" x="0px" y="0px"
	 viewBox="0 0 600 600" enable-background="new 0 0 600 600" xml:space="preserve">
<path fill="#8ED5DF" d="M300,10C133.3,10,0,143.3,0,306.7C0,436.7,86.7,550,203.3,590c13.3,3.3,20-6.7,20-13.3c0-6.7,0-26.7,0-50
	c-83.3,16.7-100-40-100-40C110,453.3,90,443.3,90,443.3c-26.7-20,3.3-16.7,3.3-16.7c30,3.3,46.7,30,46.7,30
	c26.7,46.7,70,33.3,86.7,23.3c3.3-20,10-33.3,20-40C180,433.3,110,406.7,110,293.3c0-33.3,13.3-60,30-80c-3.3-10-13.3-40,3.3-80
	c0,0,26.7-6.7,83.3,30c23.3-6.7,46.7-10,73.3-10c26.7,0,50,3.3,76.7,10c56.7-40,83.3-30,83.3-30c16.7,40,6.7,70,3.3,80
	c20,20,30,46.7,30,80c0,113.3-70,140-136.7,146.7c10,10,20,26.7,20,53.3c0,40,0,73.3,0,80c0,6.7,6.7,16.7,20,13.3
	c120-40,203.3-150,203.3-283.3C600,143.3,466.7,10,300,10z"/>
</svg>
