<?xml version="1.0" encoding="utf-8"?>
<!-- Generator: Adobe Illustrator 17.1.0, SVG Export Plug-In . SVG Version: 6.00 Build 0)  -->
<!DOCTYPE svg PUBLIC "-//W3C//DTD SVG 1.1//EN" "http://www.w3.org/Graphics/SVG/1.1/DTD/svg11.dtd">
<svg version="1.1" id="Layer_1" xmlns="http://www.w3.org/2000/svg" xmlns:xlink="http://www.w3.org/1999/xlink" x="0px" y="0px"
	 viewBox="0 0 678.2 127.4" enable-background="new 0 0 678.2 127.4" xml:space="preserve">
<g>
	<path fill="#FFFFFF" d="M378.4,71.4c-8,0-11.8-6.7-11.8-14.4c0-10.8,7-24.3,18.3-24.3c8.9,0,11.8,7.6,11.8,14.3
		C396.7,56.6,390.4,71.4,378.4,71.4L378.4,71.4z M378.9,68.5c8.4,0,14.3-12.5,14.3-21.4c0-4.9-1.9-11.4-8.7-11.4
		c-8.7,0-14.5,11.5-14.5,21C370,63.3,373,68.5,378.9,68.5L378.9,68.5z"/>
	<path fill="#FFFFFF" d="M397.1,85.8l7.4-39.5c0.9-4.9,1.6-9.3,2.1-12.7h3.2l-1.2,7.5h0.2c3.3-5.1,8-8.3,12.9-8.3
		c7,0,9.7,5.9,9.7,12.1c0,12.5-8.6,26.6-20.4,26.6c-3.6,0-6-0.8-7.4-1.6h-0.2l-2.9,16H397.1z M404,66.4c1.7,1.3,4.2,2.1,7.2,2.1
		c9.8,0,16.6-13.9,16.6-23.4c0-4.4-1.7-9.3-7.2-9.3c-5.3,0-12.1,6.7-14.2,17.9L404,66.4z"/>
	<path fill="#FFFFFF" d="M457.1,68.6c-1.9,1.3-5.5,2.8-10.1,2.8c-8.7,0-11.7-6.8-11.7-13.9c0-10.7,7.5-24.6,18.1-24.6
		c6.1,0,8.7,3.9,8.7,8.1c0,9.4-10.8,12.1-22.9,12c-0.4,1.7-0.5,6.6,0.3,9.3c1.3,4.2,4.2,6.3,8.1,6.3c4.1,0,6.9-1.5,8.6-2.5
		L457.1,68.6z M458.5,41c0-3.4-2.3-5.3-5.8-5.3c-5.7,0-10.8,6.2-13.1,14.2C449.3,50,458.5,48.4,458.5,41L458.5,41z"/>
	<path fill="#FFFFFF" d="M464.3,70.7l4.9-26.2c0.9-4.4,1.3-8,1.6-10.9h3.2l-1.1,7.6h0.2c3.2-5.4,7.9-8.3,13-8.3
		c3.6,0,8.3,2.3,8.3,9.3c0,1.9-0.3,3.7-0.7,5.7l-4.2,22.8H486l4.3-22.8c0.3-1.7,0.5-3.5,0.5-5.4c0-3.9-1.5-6.6-6.1-6.6
		c-4.9,0-12,6.2-13.6,15.1l-3.6,19.7H464.3z"/>
	<path fill="#FFFFFF" d="M511.8,66.3c1.3,1,3.8,2.1,6.5,2.1c4.9,0,8.2-3.5,8.2-7.7c0-3.7-1.5-5.9-5-8.2c-3.7-2.4-5.7-5.7-5.7-9.2
		c0-5.8,4.7-10.5,11.3-10.5c2.5,0,5,0.8,6.1,1.6l-1.2,2.9c-1.2-0.7-3.1-1.5-5.3-1.5c-4.5,0-7.5,3.2-7.5,7c0,3.5,2,5.4,5,7.5
		c3.6,2.4,5.7,5.8,5.7,9.6c0,7.5-5.5,11.6-11.9,11.6c-3.3,0-6.3-1.2-7.5-2.2L511.8,66.3z"/>
	<path fill="#FFFFFF" d="M548.3,71.4c-8,0-11.8-6.7-11.8-14.4c0-10.8,7-24.3,18.3-24.3c8.9,0,11.8,7.6,11.8,14.3
		C566.6,56.6,560.4,71.4,548.3,71.4L548.3,71.4z M548.8,68.5c8.4,0,14.3-12.5,14.3-21.4c0-4.9-1.9-11.4-8.7-11.4
		c-8.7,0-14.5,11.5-14.5,21C540,63.3,543,68.5,548.8,68.5L548.8,68.5z"/>
	<path fill="#FFFFFF" d="M601.7,33.6l-5,26.2c-0.8,4.4-1.2,8-1.5,10.9H592l0.9-7.3h-0.2c-2.9,4.9-7.6,8-12.3,8
		c-4.1,0-8.7-2.2-8.7-9.8c0-1.7,0.2-3.4,0.6-5.5l4.3-22.6h3.3l-4.2,22.2c-0.4,2.2-0.6,3.9-0.6,5.7c0,4.1,1.7,6.8,6.2,6.8
		c5,0,11.5-6,13.1-14.3l3.9-20.5H601.7z"/>
	<path fill="#FFFFFF" d="M605.3,70.7l4.7-25c0.9-4.7,1.5-8.9,1.8-12.1h3c-0.2,2.4-0.5,4.9-1,8.1h0.2c2.2-4.9,5.9-8.9,10.6-8.9
		c0.5,0,1,0.1,1.4,0.1l-0.7,3.6c-0.3-0.1-0.7-0.1-1.2-0.1c-4.9,0-10.3,7.3-11.8,15.5l-3.6,18.9H605.3z"/>
	<path fill="#FFFFFF" d="M645.9,69.4c-1.5,0.8-4.9,2-9.3,2c-9,0-12.1-6.6-12.1-13.6c0-11.4,7.8-25,20.5-25c2.9,0,5.6,0.9,6.4,1.5
		l-1.2,2.9c-1.3-0.6-3.2-1.3-5.8-1.3c-10.4,0-16.5,11.9-16.5,21.5c0,6.4,2.6,11,9.3,11c3.2,0,6-1.1,7.9-2L645.9,69.4z"/>
	<path fill="#FFFFFF" d="M673.2,68.6c-1.9,1.3-5.5,2.8-10.1,2.8c-8.7,0-11.7-6.8-11.7-13.9c0-10.7,7.5-24.6,18.1-24.6
		c6.1,0,8.7,3.9,8.7,8.1c0,9.4-10.8,12.1-22.9,12c-0.4,1.7-0.5,6.6,0.3,9.3c1.3,4.2,4.2,6.3,8.1,6.3c4.1,0,6.9-1.5,8.6-2.5
		L673.2,68.6z M674.7,41c0-3.4-2.3-5.3-5.8-5.3c-5.7,0-10.8,6.2-13.1,14.2C665.4,50,674.7,48.4,674.7,41L674.7,41z"/>
</g>
<g>
	<path fill="#FFFFFF" d="M133.9,61.9c1.9,1,5.4,2.4,8.7,2.3c3,0,4.6-1.6,4.6-3.6c0-1.9-1.2-3.2-4.4-5.1c-4-2.3-7-5.6-7-9.8
		c0-7.5,6.4-12.8,15.7-12.8c4.1,0,7.2,0.8,8.9,1.8l-2.5,7.6c-1.5-0.7-3.9-1.5-6.6-1.5c-3,0-4.9,1.4-4.9,3.5c0,1.7,1.4,2.9,4.1,4.4
		c4.2,2.4,7.6,5.6,7.6,10.2c0,8.5-6.9,13.3-16.4,13.2c-4.4-0.1-8.5-1.2-10.5-2.6L133.9,61.9z"/>
	<path fill="#FFFFFF" d="M160.4,71.9l10.3-54h10.6l-4.1,20.9l0.2-0.1c2.9-3.4,6.6-5.7,11.3-5.7c5.6,0,8.7,3.6,8.7,9.6
		c0,1.9-0.3,4.8-0.8,7.2l-4.2,22.2h-10.6l4-21.5c0.3-1.5,0.5-3.4,0.5-4.8c0-2.3-0.9-4-3.3-4c-3.4,0-7,4.5-8.4,11.6L171,71.9H160.4z"
		/>
	<path fill="#FFFFFF" d="M235.9,47.7c0,13.2-8.5,24.4-21.1,24.4c-9.6,0-14.7-6.6-14.7-14.9c0-12.9,8.5-24.4,21.3-24.4
		C231.4,32.8,235.9,40.1,235.9,47.7z M211,57c0,3.9,1.5,6.9,5.2,6.9c5.6,0,8.8-10,8.8-16.6c0-3.2-1.2-6.4-5-6.4
		C214.2,41,211,50.9,211,57z"/>
	<path fill="#FFFFFF" d="M233.3,86.9l7.4-38.9c0.8-4.4,1.7-10.1,2.2-14.1h9.4l-0.6,6h0.2c2.9-4,7-6.7,11.3-6.7c7.8,0,11,6.2,11,13.4
		c0,13-8.2,25.7-20.7,25.7c-2.6,0-5-0.4-6.2-1.4h-0.2l-2.9,16H233.3z M248.5,62.6c1.2,0.9,2.5,1.5,4.4,1.5c5.9,0,10-9.8,10-16.7
		c0-2.9-1-5.9-4.2-5.9c-3.7,0-7.2,4.4-8.4,11L248.5,62.6z"/>
	<path fill="#FFFFFF" d="M274.4,71.9l7.2-38h10.7l-7.2,38H274.4z M288.2,29.9c-3,0-5-2.6-5-5.7c0-3.5,2.7-6.4,6.1-6.4
		c3.2,0,5.3,2.5,5.3,5.6c-0.1,3.9-2.9,6.5-6.2,6.5H288.2z"/>
	<path fill="#FFFFFF" d="M294.3,71.9l5.6-30h-4.9l1.5-8h4.9l0.3-1.9c0.8-4.5,2.5-9,6.2-12.1c2.9-2.5,6.6-3.6,10.4-3.6
		c2.6,0,4.6,0.4,5.8,0.9l-2.1,8.3c-0.9-0.3-2-0.5-3.4-0.5c-3.5,0-5.7,3.4-6.3,7l-0.4,1.9h7.4l-1.5,8h-7.3l-5.6,30H294.3z"/>
	<path fill="#FFFFFF" d="M332.5,33.9l1.7,17c0.5,3.8,0.8,7,0.9,9h0.2c0.8-2,1.6-5,3.2-9.1l6.5-16.9H356l-13,27.8
		c-4.6,9.6-9.1,16.5-14,21.1c-3.8,3.5-8.3,5.3-10.4,5.8l-2.9-9c1.8-0.6,4-1.5,6-3c2.5-1.7,4.6-4,5.8-6.4c0.3-0.5,0.4-0.9,0.2-1.7
		l-6.4-34.5H332.5z"/>
</g>
<g>
	<g>
		<g>
			<g>
				<g opacity="5.000000e-02">
					<image overflow="visible" width="157" height="89" xlink:href="E20EF6DF226B4BE9.png"  transform="matrix(1 0 0 1 0 38.4337)">
					</image>
				</g>
				<g opacity="0.12">
					<image overflow="visible" width="150" height="86" xlink:href="E20EF6DF226B4BEB.png"  transform="matrix(1 0 0 1 4 40.4337)">
					</image>
				</g>
				<g>
					<linearGradient id="SVGID_1_" gradientUnits="userSpaceOnUse" x1="65.3943" y1="66.5544" x2="65.3943" y2="72.3446">
						<stop  offset="0" style="stop-color:#000000;stop-opacity:0"/>
						<stop  offset="1" style="stop-color:#000000;stop-opacity:0.52"/>
					</linearGradient>
					<path fill="url(#SVGID_1_)" d="M89.5,23.3c-0.6-0.1-1.9-3-2-3c0,0-32.7,9.5-33.1,10.1C53.9,31,40,79.9,40,79.9l50.7,9.5
						L89.5,23.3z"/>
					<linearGradient id="SVGID_2_" gradientUnits="userSpaceOnUse" x1="104.0044" y1="64.8973" x2="104.0044" y2="71.1082">
						<stop  offset="0" style="stop-color:#000000;stop-opacity:0"/>
						<stop  offset="1" style="stop-color:#000000;stop-opacity:0.52"/>
					</linearGradient>
					<path fill="url(#SVGID_2_)" d="M103.7,22.1c0,0-0.1-0.4-0.3-0.5c-0.2-0.1-0.5-0.2-0.5-0.2l-7.2-0.5l-5.3-5.2
						c-0.2-0.2-0.4-0.2-0.7-0.3l0.9,74l27.5-5.9L103.7,22.1z"/>
				</g>
				<linearGradient id="SVGID_3_" gradientUnits="userSpaceOnUse" x1="110.5266" y1="87.5155" x2="69.9548" y2="73.9596">
					<stop  offset="0" style="stop-color:#000000;stop-opacity:0"/>
					<stop  offset="1" style="stop-color:#000000;stop-opacity:0.4"/>
				</linearGradient>
				<polygon fill="url(#SVGID_3_)" points="90.7,89.4 119.9,89.9 131.3,86 118.3,83.4 				"/>
				<path opacity="0.3" fill="#FFFFFF" d="M90.8,25.4c1.1,0.4,2.2-0.3,2.4-1.6c0.2-1.2-0.5-2.6-1.5-2.9c-1.1-0.4-2.2,0.3-2.4,1.6
					C89,23.7,89.7,25,90.8,25.4z"/>
				<path opacity="0.62" fill="#5B5962" d="M69.2,29.6c-0.1,0-0.1,0-0.2,0c-0.9-0.1-1.6-0.9-1.6-1.7c0-0.8-0.5-20.1,10.8-24.5
					c2.9-1.1,5.4-0.9,7.7,0.7c2.7,1.9,4.7,5.7,5.9,11.3c0.8,3.9,1,7.3,1,7.5c0,0.8-0.6,1.4-1.5,1.3c-0.9-0.1-1.6-0.9-1.6-1.7
					c-0.1-3.5-1.3-13.1-5.3-15.9c-1.3-0.9-2.8-1-4.6-0.2c-9.7,3.8-9.2,21.8-9.2,22C70.5,29,69.9,29.6,69.2,29.6z"/>
				<path opacity="0.62" fill="#5B5962" d="M69.2,29.6c-0.1,0-0.1,0-0.2,0c-0.9-0.1-1.6-0.9-1.6-1.7c0-0.8-0.5-20.1,10.8-24.5
					c2.9-1.1,5.4-0.9,7.7,0.7c2.7,1.9,4.7,5.7,5.9,11.3c0.8,3.9,1,7.3,1,7.5c0,0.8-0.6,1.4-1.5,1.3c-0.9-0.1-1.6-0.9-1.6-1.7
					c-0.1-3.5-1.3-13.1-5.3-15.9c-1.3-0.9-2.8-1-4.6-0.2c-9.7,3.8-9.2,21.8-9.2,22C70.5,29,69.9,29.6,69.2,29.6z"/>
				<path opacity="0.46" fill="#B0AEBF" d="M85.3,4.2c-2-1.4-4.5-1.7-7.1-0.6c-4.6,1.8-7.9,6.5-9.4,13.7c-1.2,5.3-1,10.1-1,10.3
					c0,0.3,0.1,0.5,0.3,0.7c0.2,0.2,0.4,0.3,0.7,0.4c0,0,0.1,0,0.1,0c0.5,0,0.8-0.4,0.8-0.8c0-0.2-0.5-18.6,9.5-22.5
					c2-0.8,3.8-0.7,5.2,0.3c4.2,2.9,5.4,12.9,5.6,16.4c0,0.5,0.5,1,1,1.1c0.5,0.1,1-0.3,0.9-0.8C91.8,21.8,91.2,8.4,85.3,4.2z"/>
				<path opacity="0.46" fill="#B0AEBF" d="M68.7,28C68.7,28,68.6,28,68.7,28C68.3,28,68,27.7,68,27.4c0-0.2-0.1-4.9,1-10.2
					c1.6-7.1,4.8-11.8,9.3-13.5c2.5-1,4.8-0.8,6.7,0.6c5.8,4.1,6.3,17.3,6.4,17.8c0,0.3-0.2,0.5-0.6,0.5c-0.3,0-0.6-0.3-0.6-0.6
					c0-0.1-0.6-13.1-5.8-16.8c-1.6-1.1-3.4-1.2-5.6-0.4c-10.2,4-9.7,22.6-9.7,22.8C69.2,27.8,69,28,68.7,28z"/>
				<path opacity="0.62" fill="#5B5962" d="M72.9,13.3c0.4-0.8,0.8-1.6,1.2-2.4c-0.2,0.3-1.2,3-4.3,2.5C69.7,13.4,71.6,14,72.9,13.3
					z"/>
				<path opacity="0.62" fill="#5B5962" d="M71.7,16.6c0.3-0.8,0.6-1.7,0.8-2.5c-0.1,0.3-0.6,3.1-3.9,3.1
					C68.7,17.2,70.6,17.5,71.7,16.6z"/>
				<path opacity="0.62" fill="#5B5962" d="M71,19.9c0.2-0.9,0.4-1.8,0.6-2.6c-0.1,0.3-0.2,3.1-3.5,3.5C68,20.8,69.9,21,71,19.9z"/>
				<path opacity="0.62" fill="#5B5962" d="M89.8,9.9c-0.4-0.9-0.9-1.8-1.3-2.7c0.1,0.3,1.7,3.2,0,5.3C88.4,12.6,89.8,11.5,89.8,9.9
					z"/>
				<path opacity="0.62" fill="#5B5962" d="M87,5.3c-0.8-0.7-1.6-1.3-2.5-1.8c0.3,0.2,3.1,2.1,2.9,5C87.4,8.5,87.8,6.8,87,5.3z"/>
				<path opacity="0.62" fill="#5B5962" d="M91.2,14.7c-0.2-1-0.5-1.9-0.8-2.8c0.1,0.3,1.1,3.4-1.1,5.1
					C89.2,16.9,90.8,16.2,91.2,14.7z"/>
				<path opacity="0.62" fill="#5B5962" d="M92.3,19.5c-0.1-1-0.3-1.9-0.5-2.8c0,0.3,0.7,3.4-1.7,4.8C90,21.4,91.7,20.9,92.3,19.5z"
					/>
				<path opacity="0.62" fill="#5B5962" d="M70.5,23.7c0.1-0.9,0.2-1.8,0.2-2.8c-0.1,0.3,0,3.3-3,4C67.7,25,69.6,24.9,70.5,23.7z"/>
				<path opacity="0.62" fill="#5B5962" d="M74.4,10.4c0.6-0.6,1.2-1.3,1.7-2c-0.2,0.2-1.9,2.3-4.9,1.5C71.1,10,72.9,10.9,74.4,10.4
					z"/>
				<path opacity="0.62" fill="#5B5962" d="M76.3,8.1c0.7-0.5,1.4-1,2.1-1.6C78.1,6.6,76,8.4,73,7.1C73,7.1,74.7,8.3,76.3,8.1z"/>
				<path opacity="0.62" fill="#5B5962" d="M79.1,6.4c0.9-0.3,1.7-0.6,2.5-0.9c-0.3,0.1-2.9,1-5.5-0.9C76.1,4.6,77.4,6.1,79.1,6.4z"
					/>
				<path opacity="0.62" fill="#5B5962" d="M81.6,5.4c0.7,0.1,1.5,0.2,2.2,0.2c-0.3,0-2.5-0.2-3.8-2.3C79.9,3.4,80.4,4.8,81.6,5.4z"
					/>
				<path opacity="0.62" fill="#5B5962" d="M84.6,6.6c0.5,0.6,1.1,1.1,1.7,1.7c-0.2-0.2-1.9-1.9-1.6-4C84.7,4.2,84.1,5.4,84.6,6.6z"
					/>
				
					<linearGradient id="SVGID_4_" gradientUnits="userSpaceOnUse" x1="-331.8809" y1="3.8913" x2="-336.9394" y2="25.1103" gradientTransform="matrix(1 0 0.1763 1 411.7968 0)">
					<stop  offset="0" style="stop-color:#FFFFFF;stop-opacity:0.65"/>
					<stop  offset="1" style="stop-color:#FFFFFF;stop-opacity:0"/>
				</linearGradient>
				<path opacity="0.74" fill="url(#SVGID_4_)" d="M90.8,21.8c0-0.6-0.6-13.6-6.2-17.6c-1.1-0.8-2.2-1.1-3.5-1.1
					c-0.9,0-1.9,0.2-2.9,0.6C73.7,5.4,70.6,10,69,17c-1.2,5.3-1,9.9-1,10.1c0,0.2,0.1,0.3,0.3,0.3c0,0,0,0,0,0
					c0.1,0,0.2-0.1,0.2-0.2c0-0.2-0.5-19,9.8-23c2.2-0.9,4.2-0.7,5.9,0.4c5.3,3.8,5.9,16.9,5.9,17.1c0,0.2,0.1,0.3,0.3,0.3
					c0,0,0,0,0,0C90.7,22,90.8,21.9,90.8,21.8z"/>
				<g>
					
						<linearGradient id="SVGID_5_" gradientUnits="userSpaceOnUse" x1="-326.7413" y1="10.4533" x2="-324.3286" y2="26.7546" gradientTransform="matrix(1 0 0.1763 1 411.7968 0)">
						<stop  offset="0" style="stop-color:#000000;stop-opacity:0"/>
						<stop  offset="1" style="stop-color:#000000;stop-opacity:0.4"/>
					</linearGradient>
					<path fill="url(#SVGID_5_)" d="M91.7,15.4C90.5,9.8,88.5,6,85.8,4.1c-1.5-1-3.1-1.5-4.8-1.4c1.4,0.1,2.7,0.6,3.9,1.4
						c2.7,1.9,4.7,5.7,5.9,11.3c0.8,3.9,1,7.3,1,7.5c0,0.6-0.3,1.1-0.8,1.2c0.1,0,0.2,0.1,0.3,0.1c0.9,0.1,1.5-0.5,1.5-1.3
						C92.7,22.7,92.5,19.3,91.7,15.4z"/>
				</g>
				
					<linearGradient id="SVGID_6_" gradientUnits="userSpaceOnUse" x1="-342.4547" y1="21.4821" x2="-333.9955" y2="3.731" gradientTransform="matrix(1 0 0.1763 1 411.7968 0)">
					<stop  offset="0" style="stop-color:#000000;stop-opacity:0"/>
					<stop  offset="1" style="stop-color:#000000;stop-opacity:0.4"/>
				</linearGradient>
				<path fill="url(#SVGID_6_)" d="M78.7,6.2c-9.7,3.8-9.2,21.8-9.2,22c0,0.6-0.3,1.1-0.8,1.2c0.1,0,0.2,0,0.3,0.1
					c0.1,0,0.1,0,0.2,0c0.7,0,1.3-0.5,1.3-1.3c0-0.2-0.5-18.3,9.2-22c0.7-0.3,1.3-0.4,1.8-0.5C80.7,5.7,79.7,5.8,78.7,6.2z"/>
				<linearGradient id="SVGID_7_" gradientUnits="userSpaceOnUse" x1="76.9028" y1="8.489" x2="81.4897" y2="31.6147">
					<stop  offset="0" style="stop-color:#000000;stop-opacity:0"/>
					<stop  offset="1" style="stop-color:#000000;stop-opacity:0.4"/>
				</linearGradient>
				<path fill="url(#SVGID_7_)" d="M69.2,29.6c-0.1,0-0.1,0-0.2,0c-0.9-0.1-1.6-0.9-1.6-1.7c0-0.8-0.5-20.1,10.8-24.5
					c2.9-1.1,5.4-0.9,7.7,0.7c2.7,1.9,4.7,5.7,5.9,11.3c0.8,3.9,1,7.3,1,7.5c0,0.8-0.6,1.4-1.5,1.3c-0.9-0.1-1.6-0.9-1.6-1.7
					c-0.1-3.5-1.3-13.1-5.3-15.9c-1.3-0.9-2.8-1-4.6-0.2c-9.7,3.8-9.2,21.8-9.2,22C70.5,29,69.9,29.6,69.2,29.6z"/>
				<linearGradient id="SVGID_8_" gradientUnits="userSpaceOnUse" x1="86.2637" y1="14.6931" x2="58.6609" y2="82.6532">
					<stop  offset="0" style="stop-color:#B3CE65"/>
					<stop  offset="1" style="stop-color:#7BB342"/>
				</linearGradient>
				<path fill="url(#SVGID_8_)" d="M93.4,10.7L49.7,24.2c0,0-1.9,0.5-2.3,1.1c-0.5,0.6-0.6,2.1-0.6,2.1L40,79.5L90.7,89l3.9-78.4
					C94.1,10.5,93.5,10.7,93.4,10.7z"/>
				<linearGradient id="SVGID_9_" gradientUnits="userSpaceOnUse" x1="127.2745" y1="44.4011" x2="101.6697" y2="48.4138">
					<stop  offset="0" style="stop-color:#AFCF36"/>
					<stop  offset="1" style="stop-color:#5CA846"/>
				</linearGradient>
				<path fill="url(#SVGID_9_)" d="M108.5,17.4c0,0-0.1-0.4-0.3-0.5c-0.2-0.1-0.5-0.2-0.5-0.2l-7.2-0.5l-5.3-5.2
					c-0.2-0.2-0.4-0.2-0.7-0.3L90.7,89l27.5-5.9L108.5,17.4z"/>
				
					<linearGradient id="SVGID_10_" gradientUnits="userSpaceOnUse" x1="157.8682" y1="25.7123" x2="151.1794" y2="80.1787" gradientTransform="matrix(0.9991 4.350000e-02 -4.350000e-02 0.9991 -89.2899 16.3901)">
					<stop  offset="0" style="stop-color:#1D1C1A;stop-opacity:0.5"/>
					<stop  offset="8.962709e-02" style="stop-color:#1D1C1A;stop-opacity:0.4552"/>
					<stop  offset="1" style="stop-color:#1D1C1A;stop-opacity:0"/>
				</linearGradient>
				<path opacity="0.47" fill="url(#SVGID_10_)" d="M74.8,53.7c-0.8-1-1.7-2-2.6-2.8c-0.9-0.8-1.9-1.5-2.9-2.1
					c-0.7-0.4-1.3-0.8-1.8-1.3c-0.5-0.4-0.9-0.8-1.2-1.2c-0.3-0.4-0.6-0.8-0.7-1.2c-0.2-0.4-0.2-0.8-0.2-1.3c0-0.6,0.2-1.1,0.4-1.6
					c0.2-0.5,0.5-0.9,0.9-1.2c0.4-0.3,0.9-0.6,1.5-0.8c0.6-0.2,1.2-0.3,1.9-0.4c0.8,0,1.5,0,2.2,0.1c0.7,0.1,1.4,0.2,2,0.4
					c0.6,0.2,1.2,0.3,1.8,0.5c0.5,0.2,1,0.4,1.4,0.6l3.4-10.1c-0.5-0.3-1.1-0.5-1.8-0.7c-0.7-0.2-1.5-0.4-2.3-0.5
					C75.9,30.1,75,30,74,30c-1,0-2,0.1-3.1,0.2c-2.3,0.3-4.4,0.9-6.2,1.9c-1.8,0.9-3.3,2-4.6,3.4c-1.2,1.3-2.2,2.9-2.9,4.6
					c-0.7,1.7-1.1,3.6-1.2,5.7c-0.1,1.2,0.1,2.4,0.3,3.4c0.3,1.1,0.7,2,1.2,2.9c0.5,0.9,1.2,1.7,1.9,2.5c0.7,0.8,1.6,1.5,2.5,2.2
					c0.7,0.5,1.3,1,1.8,1.5c0.5,0.5,0.9,1,1.2,1.4c0.3,0.5,0.5,0.9,0.7,1.4c0.1,0.5,0.2,1,0.2,1.5c0,0.5-0.1,1-0.3,1.5
					c-0.2,0.4-0.5,0.8-0.9,1.1c-0.4,0.3-0.8,0.5-1.3,0.6c-0.5,0.1-1.1,0.1-1.8,0c-0.8-0.1-1.5-0.3-2.3-0.6c-0.7-0.3-1.5-0.6-2.1-1
					c-0.7-0.4-1.3-0.8-1.8-1.2c-0.5-0.4-1-0.8-1.4-1.1l-2.3,7.7c0.4,0.5,0.9,1,1.4,1.5c0.6,0.5,1.3,0.9,2,1.4
					c0.8,0.4,1.6,0.8,2.5,1.2c0.9,0.4,1.8,0.7,2.8,0.9c0,0,0,0,0,0c0,0,0,0,0,0c0,0,0,0,0,0c0,0,0,0,0,0c2.1,0.5,4.1,0.6,6,0.3
					c2-0.3,3.8-0.9,5.3-2c1.6-1.1,2.9-2.6,3.9-4.4c1-1.9,1.6-4.2,1.7-6.9c0.1-1.6-0.2-3.1-0.6-4.5C76.3,55.9,75.6,54.7,74.8,53.7z"
					/>
				
					<linearGradient id="SVGID_11_" gradientUnits="userSpaceOnUse" x1="158.3754" y1="26.2196" x2="151.6866" y2="80.6859" gradientTransform="matrix(0.9991 4.350000e-02 -4.350000e-02 0.9991 -89.2899 16.3901)">
					<stop  offset="0" style="stop-color:#FFFFFF"/>
					<stop  offset="1" style="stop-color:#CDCAE3"/>
				</linearGradient>
				<path fill="url(#SVGID_11_)" d="M75.3,54.2c-0.8-1-1.7-2-2.6-2.8c-0.9-0.8-1.9-1.5-2.9-2.1c-0.7-0.4-1.3-0.8-1.8-1.3
					c-0.5-0.4-0.9-0.8-1.2-1.2c-0.3-0.4-0.6-0.8-0.7-1.2c-0.2-0.4-0.2-0.8-0.2-1.3c0-0.6,0.2-1.1,0.4-1.6c0.2-0.5,0.5-0.9,0.9-1.2
					c0.4-0.3,0.9-0.6,1.5-0.8c0.6-0.2,1.2-0.3,1.9-0.4c0.8,0,1.5,0,2.2,0.1c0.7,0.1,1.4,0.2,2,0.4c0.6,0.2,1.2,0.3,1.8,0.5
					c0.5,0.2,1,0.4,1.4,0.6l3.4-10.1c-0.5-0.3-1.1-0.5-1.8-0.7c-0.7-0.2-1.5-0.4-2.3-0.5c-0.9-0.1-1.8-0.2-2.8-0.2
					c-1,0-2,0.1-3.1,0.2c-2.3,0.3-4.4,0.9-6.2,1.9c-1.8,0.9-3.3,2-4.6,3.4c-1.2,1.3-2.2,2.9-2.9,4.6c-0.7,1.7-1.1,3.6-1.2,5.7
					c-0.1,1.2,0.1,2.4,0.3,3.4c0.3,1.1,0.7,2,1.2,2.9c0.5,0.9,1.2,1.7,1.9,2.5c0.7,0.8,1.6,1.5,2.5,2.2c0.7,0.5,1.3,1,1.8,1.5
					c0.5,0.5,0.9,1,1.2,1.4c0.3,0.5,0.5,0.9,0.7,1.4c0.1,0.5,0.2,1,0.2,1.5c0,0.5-0.1,1-0.3,1.5c-0.2,0.4-0.5,0.8-0.9,1.1
					c-0.4,0.3-0.8,0.5-1.3,0.6c-0.5,0.1-1.1,0.1-1.8,0c-0.8-0.1-1.5-0.3-2.3-0.6c-0.7-0.3-1.5-0.6-2.1-1c-0.7-0.4-1.3-0.8-1.8-1.2
					c-0.5-0.4-1-0.8-1.4-1.1L52,70.2c0.4,0.5,0.9,1,1.4,1.5c0.6,0.5,1.3,0.9,2,1.4c0.8,0.4,1.6,0.8,2.5,1.2c0.9,0.4,1.8,0.7,2.8,0.9
					c0,0,0,0,0,0c0,0,0,0,0,0c0,0,0,0,0,0c0,0,0,0,0,0c2.1,0.5,4.1,0.6,6,0.3c2-0.3,3.8-0.9,5.3-2c1.6-1.1,2.9-2.5,3.9-4.4
					c1-1.9,1.6-4.2,1.7-6.9c0.1-1.6-0.2-3.1-0.6-4.5C76.8,56.5,76.1,55.3,75.3,54.2z"/>
				<linearGradient id="SVGID_12_" gradientUnits="userSpaceOnUse" x1="80.1483" y1="51.0324" x2="113.4787" y2="47.813">
					<stop  offset="0" style="stop-color:#1D1C1A;stop-opacity:0.5"/>
					<stop  offset="3.803299e-02" style="stop-color:#1D1C1A;stop-opacity:0.4837"/>
					<stop  offset="0.4243" style="stop-color:#1D1C1A;stop-opacity:0.3185"/>
					<stop  offset="1" style="stop-color:#1D1C1A;stop-opacity:0"/>
				</linearGradient>
				<path opacity="0.41" fill="url(#SVGID_12_)" d="M102.3,74.4l-1.7-58.2l-0.3-0.3l0.8,57.7c0,0-7.3,11-8.4,10.7
					c-1.6-0.5,3.1-72.8,3.1-72.8L95.3,11c-0.2-0.2-0.4-0.3-0.7-0.3l-3.8,77.3l0,0L90.7,89l1.4-1.7l0,0L102.3,74.4z"/>
				<linearGradient id="SVGID_13_" gradientUnits="userSpaceOnUse" x1="86.0366" y1="12.7419" x2="82.1869" y2="18.6205">
					<stop  offset="0" style="stop-color:#000000;stop-opacity:0"/>
					<stop  offset="1" style="stop-color:#000000;stop-opacity:0.4"/>
				</linearGradient>
				<path fill="url(#SVGID_13_)" d="M82.6,14c-0.6,2.4-1.4,4.7-2,6.1c-0.3,0.8,0,1.6,0.8,1.7c0.8,0.1,1.7-0.5,2.1-1.3
					c0.1-0.1,1.4-3.5,2.3-7.5c0,0,0,0,0,0L82.6,14z"/>
				<linearGradient id="SVGID_14_" gradientUnits="userSpaceOnUse" x1="62.7599" y1="19.9571" x2="59.4825" y2="23.8589">
					<stop  offset="0" style="stop-color:#000000;stop-opacity:0"/>
					<stop  offset="1" style="stop-color:#000000;stop-opacity:0.4"/>
				</linearGradient>
				<path fill="url(#SVGID_14_)" d="M59.3,21.2c-0.7,1.6-1.5,2.9-2,3.8c-0.5,0.8-0.2,1.6,0.6,1.8c0.8,0.2,1.8-0.2,2.2-1
					c0.1-0.1,1.5-2.6,2.9-5.8L59.3,21.2z"/>
				<linearGradient id="SVGID_15_" gradientUnits="userSpaceOnUse" x1="103.6477" y1="82.7476" x2="104.9372" y2="87.68">
					<stop  offset="0" style="stop-color:#000000;stop-opacity:0"/>
					<stop  offset="1" style="stop-color:#000000;stop-opacity:0.4"/>
				</linearGradient>
				<polygon opacity="0.32" fill="url(#SVGID_15_)" points="90.8,89 102.3,74.4 118.3,83.1 				"/>
				<linearGradient id="SVGID_16_" gradientUnits="userSpaceOnUse" x1="101.94" y1="74.9823" x2="104.9174" y2="87.8438">
					<stop  offset="0" style="stop-color:#FFFFFF;stop-opacity:0.5"/>
					<stop  offset="8.962709e-02" style="stop-color:#FFFFFF;stop-opacity:0.4552"/>
					<stop  offset="1" style="stop-color:#FFFFFF;stop-opacity:0"/>
				</linearGradient>
				<polygon opacity="0.19" fill="url(#SVGID_16_)" points="90.7,89 102.2,74.4 118.3,83.1 				"/>
				<linearGradient id="SVGID_17_" gradientUnits="userSpaceOnUse" x1="100.7777" y1="76.41" x2="105.9953" y2="89.9022">
					<stop  offset="0" style="stop-color:#000000;stop-opacity:0"/>
					<stop  offset="1" style="stop-color:#000000;stop-opacity:0.4"/>
				</linearGradient>
				<polygon opacity="0.19" fill="url(#SVGID_17_)" points="90.7,89 102.2,74.4 118.3,83.1 				"/>
				<linearGradient id="SVGID_18_" gradientUnits="userSpaceOnUse" x1="95.3101" y1="20.6273" x2="62.1977" y2="58.0122">
					<stop  offset="0" style="stop-color:#FFFFFF;stop-opacity:0.5"/>
					<stop  offset="1" style="stop-color:#FFFFFF;stop-opacity:0"/>
				</linearGradient>
				<path opacity="0.6" fill="url(#SVGID_18_)" d="M79.5,48.2c6,8.1,10,16.9,12,25.4l3.1-62.9c-0.6-0.1-1.1,0-1.3,0L49.7,24.2
					c0,0-0.4,0.1-0.9,0.3C59.8,28.3,70.9,36.5,79.5,48.2z"/>
				<linearGradient id="SVGID_19_" gradientUnits="userSpaceOnUse" x1="89.8598" y1="49.0123" x2="126.6045" y2="50.1361">
					<stop  offset="0" style="stop-color:#1D1C1A;stop-opacity:0.5"/>
					<stop  offset="8.962709e-02" style="stop-color:#1D1C1A;stop-opacity:0.4552"/>
					<stop  offset="1" style="stop-color:#1D1C1A;stop-opacity:0"/>
				</linearGradient>
				<path fill="url(#SVGID_19_)" d="M108.2,16.9c0.2,0.2,0.3,0.5,0.3,0.5l9.6,65.6l-15.8-8.7l-1.7-58.2l7.1,0.5
					C107.6,16.7,108,16.7,108.2,16.9z"/>
				<linearGradient id="SVGID_20_" gradientUnits="userSpaceOnUse" x1="117.4101" y1="19.6957" x2="114.5623" y2="30.2531">
					<stop  offset="0" style="stop-color:#FFFFFF;stop-opacity:0.4"/>
					<stop  offset="1" style="stop-color:#FFFFFF;stop-opacity:0"/>
				</linearGradient>
				<path fill="url(#SVGID_20_)" d="M107.1,17c0,0,0.3,0,0.6,0.2c0.2,0.2,0.3,0.5,0.3,0.5l9.4,64.9l0.7,0.4l-9.6-65.6
					c0,0,0-0.3-0.3-0.5c-0.2-0.2-0.6-0.2-0.6-0.2l-7.1-0.5L107.1,17z"/>
				<linearGradient id="SVGID_21_" gradientUnits="userSpaceOnUse" x1="62.9296" y1="88.2974" x2="65.41" y2="75.6446">
					<stop  offset="0" style="stop-color:#1D1C1A;stop-opacity:0.5"/>
					<stop  offset="8.962709e-02" style="stop-color:#1D1C1A;stop-opacity:0.4552"/>
					<stop  offset="1" style="stop-color:#1D1C1A;stop-opacity:0"/>
				</linearGradient>
				<polygon fill="url(#SVGID_21_)" points="40,79.5 90.7,89 93.2,35.3 45.3,35.6 				"/>
				
					<ellipse transform="matrix(-0.3434 0.9392 -0.9392 -0.3434 102.8765 -20.4674)" opacity="0.3" fill="#FFFFFF" cx="58.6" cy="25.7" rx="2.4" ry="2"/>
				
					<ellipse transform="matrix(-0.3434 0.9392 -0.9392 -0.3434 102.3379 -21.2378)" opacity="0.89" fill="#221F1F" cx="58.6" cy="25.2" rx="2.4" ry="2"/>
				<linearGradient id="SVGID_22_" gradientUnits="userSpaceOnUse" x1="84.9888" y1="49.5046" x2="118.4465" y2="50.8775">
					<stop  offset="0" style="stop-color:#1D1C1A;stop-opacity:0.5"/>
					<stop  offset="1" style="stop-color:#1D1C1A;stop-opacity:0"/>
				</linearGradient>
				<path fill="url(#SVGID_22_)" d="M100.6,16.2L95.3,11c-0.2-0.2-0.4-0.3-0.7-0.3L90.7,89l11.6-14.6L100.6,16.2z"/>
				<linearGradient id="SVGID_23_" gradientUnits="userSpaceOnUse" x1="73.2464" y1="10.9041" x2="67.5128" y2="73.5919">
					<stop  offset="0" style="stop-color:#FFFFFF;stop-opacity:0.5"/>
					<stop  offset="1" style="stop-color:#FFFFFF;stop-opacity:0"/>
				</linearGradient>
				<path fill="url(#SVGID_23_)" d="M93.4,10.7L49.7,24.2c0,0-1.9,0.5-2.3,1.1c0,0-0.1,0.1-0.1,0.1l44.1-12.2
					c0.4-0.1,1.3-0.4,1.1,2.1l-2.7,73.5l1,0.2l3.9-78.4C94.1,10.5,93.5,10.7,93.4,10.7z"/>
				<linearGradient id="SVGID_24_" gradientUnits="userSpaceOnUse" x1="73.2464" y1="10.9041" x2="67.5128" y2="73.5919">
					<stop  offset="0" style="stop-color:#FFFFFF;stop-opacity:0.5"/>
					<stop  offset="1" style="stop-color:#FFFFFF;stop-opacity:0"/>
				</linearGradient>
				<path fill="url(#SVGID_24_)" d="M93.4,10.7L49.7,24.2c0,0-1.9,0.5-2.3,1.1c0,0-0.1,0.1-0.1,0.1l10.2-2.8l35.1-10.9
					c0.1,0,0.7-0.2,1.3,0L90,88.9l0.7,0.1l3.9-78.4C94.1,10.5,93.5,10.7,93.4,10.7z"/>
				<linearGradient id="SVGID_25_" gradientUnits="userSpaceOnUse" x1="102.2543" y1="75.1059" x2="90.8613" y2="93.1145">
					<stop  offset="0" style="stop-color:#FFFFFF;stop-opacity:0.5"/>
					<stop  offset="8.962709e-02" style="stop-color:#FFFFFF;stop-opacity:0.4552"/>
					<stop  offset="1" style="stop-color:#FFFFFF;stop-opacity:0"/>
				</linearGradient>
				<path opacity="0.32" fill="url(#SVGID_25_)" d="M104.6,75.6l-2.3-1.3L90.7,89l0.6-0.1c0,0,10.2-13.1,11.1-13.6
					C103.1,75,104.6,75.6,104.6,75.6z"/>
				<linearGradient id="SVGID_26_" gradientUnits="userSpaceOnUse" x1="98.729" y1="73.5251" x2="97.9343" y2="76.4713">
					<stop  offset="0" style="stop-color:#000000;stop-opacity:0"/>
					<stop  offset="1" style="stop-color:#000000;stop-opacity:0.4"/>
				</linearGradient>
				<path opacity="0.57" fill="url(#SVGID_26_)" d="M90.7,89l11.6-14.6C102.3,74.4,95,82.4,90.7,89z"/>
				<linearGradient id="SVGID_27_" gradientUnits="userSpaceOnUse" x1="110.8261" y1="76.7027" x2="110.6301" y2="77.4293">
					<stop  offset="0" style="stop-color:#000000;stop-opacity:0"/>
					<stop  offset="1" style="stop-color:#000000;stop-opacity:0.4"/>
				</linearGradient>
				<path opacity="0.46" fill="url(#SVGID_27_)" d="M118.3,83.1l-15.9-8.7C102.3,74.4,104.1,74.7,118.3,83.1z"/>
				
					<ellipse transform="matrix(-0.3435 0.9392 -0.9392 -0.3435 128.9613 -49.327)" opacity="0.3" fill="#FFFFFF" cx="81.7" cy="20.4" rx="2.4" ry="2"/>
				
					<ellipse transform="matrix(-0.3435 0.9392 -0.9392 -0.3435 128.4227 -50.0974)" opacity="0.89" fill="#221F1F" cx="81.7" cy="19.8" rx="2.4" ry="2"/>
				<path fill="#5B5962" d="M58.5,26.9c-0.1,0-0.1,0-0.2,0c-0.8-0.1-1.4-0.9-1.3-1.7c0.1-0.8,3-20.1,15.1-24.5
					c3-1.1,5.6-0.9,7.6,0.7c2.4,1.9,3.7,5.7,3.9,11.3c0.1,3.9-0.3,7.3-0.3,7.5c-0.1,0.8-0.9,1.4-1.7,1.3c-0.8-0.1-1.4-0.9-1.3-1.7
					c0.5-3.5,1-13.1-2.5-15.9c-1.1-0.9-2.6-1-4.6-0.2C62.8,7.3,60,25.4,60,25.6C59.9,26.3,59.2,26.9,58.5,26.9z"/>
				<path opacity="0.46" fill="#B0AEBF" d="M79.1,1.5c-1.8-1.4-4.2-1.7-7-0.6c-4.9,1.8-9,6.5-11.9,13.7c-2.1,5.3-2.8,10.1-2.8,10.3
					c0,0.3,0,0.5,0.2,0.7c0.2,0.2,0.4,0.3,0.6,0.4c0,0,0.1,0,0.1,0c0.5,0,0.9-0.4,0.9-0.8c0-0.2,2.8-18.6,13.5-22.5
					C74.9,1.8,76.6,2,77.9,3c3.6,2.9,3.2,12.9,2.7,16.4c-0.1,0.5,0.3,1,0.8,1.1c0.5,0.1,1-0.3,1.1-0.8C82.5,19.1,84.3,5.7,79.1,1.5z
					"/>
				<path opacity="0.81" fill="#B0AEBF" d="M58.3,25.4C58.3,25.4,58.2,25.4,58.3,25.4c-0.4-0.1-0.6-0.3-0.6-0.7
					c0-0.2,0.7-4.9,2.8-10.2C63.4,7.4,67.4,2.7,72.2,1c2.7-1,4.9-0.8,6.6,0.6c5.1,4.1,3.3,17.3,3.2,17.8c0,0.3-0.3,0.5-0.6,0.5
					c-0.3,0-0.5-0.3-0.5-0.6c0-0.1,1.8-13.1-2.8-16.8c-1.4-1.1-3.2-1.2-5.5-0.4C61.7,6,58.9,24.7,58.9,24.9
					C58.8,25.1,58.6,25.4,58.3,25.4z"/>
				<path opacity="0.42" fill="#5B5962" d="M65.1,10.6c0.6-0.8,1.1-1.6,1.6-2.4c-0.2,0.3-1.7,3-4.8,2.5
					C61.9,10.8,63.6,11.3,65.1,10.6z"/>
				<path opacity="0.42" fill="#5B5962" d="M63.3,13.9c0.5-0.8,0.9-1.7,1.3-2.5c-0.2,0.3-1.2,3.1-4.5,3.1
					C60.2,14.5,62,14.8,63.3,13.9z"/>
				<path opacity="0.42" fill="#5B5962" d="M62,17.3c0.4-0.9,0.7-1.8,1-2.6c-0.1,0.3-0.7,3.1-4.1,3.5C58.9,18.1,60.8,18.3,62,17.3z"
					/>
				<path opacity="0.62" fill="#5B5962" d="M82.6,7.3c-0.2-0.9-0.5-1.8-0.9-2.7c0.1,0.3,1.1,3.2-1,5.3C80.8,9.9,82.3,8.9,82.6,7.3z"
					/>
				<path opacity="0.62" fill="#5B5962" d="M80.6,2.6c-0.7-0.7-1.4-1.3-2.2-1.8c0.2,0.2,2.7,2.1,2,5C80.4,5.8,81.2,4.1,80.6,2.6z"/>
				<path opacity="0.62" fill="#5B5962" d="M83.1,12c-0.1-1-0.2-1.9-0.3-2.8c0,0.3,0.5,3.4-2,5.1C80.8,14.2,82.5,13.5,83.1,12z"/>
				<path opacity="0.62" fill="#5B5962" d="M83.4,16.8c0.1-1,0.1-1.9,0-2.8c0,0.3,0.1,3.4-2.6,4.8C80.8,18.7,82.6,18.2,83.4,16.8z"
					/>
				<path opacity="0.42" fill="#5B5962" d="M60.8,21.1c0.3-0.9,0.5-1.8,0.7-2.8c-0.1,0.3-0.6,3.3-3.7,4
					C57.9,22.3,59.7,22.2,60.8,21.1z"/>
				<path opacity="0.42" fill="#5B5962" d="M67.1,7.8c0.7-0.6,1.4-1.3,2-2c-0.3,0.2-2.3,2.3-5.2,1.5C63.9,7.3,65.5,8.2,67.1,7.8z"/>
				<path opacity="0.42" fill="#5B5962" d="M69.4,5.4c0.8-0.5,1.6-1,2.3-1.6C71.4,4,69,5.7,66.3,4.4C66.3,4.4,67.8,5.6,69.4,5.4z"/>
				<path opacity="0.62" fill="#5B5962" d="M72.5,3.7c0.9-0.3,1.8-0.6,2.7-0.9c-0.3,0.1-3.1,1-5.3-0.9C69.9,1.9,70.9,3.4,72.5,3.7z"
					/>
				<path opacity="0.62" fill="#5B5962" d="M75.2,2.8c0.7,0.1,1.4,0.2,2.2,0.2c-0.3,0-2.5-0.2-3.4-2.3C73.9,0.7,74.1,2.1,75.2,2.8z"
					/>
				<path opacity="0.62" fill="#5B5962" d="M77.9,3.9c0.4,0.6,0.9,1.1,1.4,1.7c-0.2-0.2-1.6-1.9-0.9-4C78.5,1.5,77.7,2.7,77.9,3.9z"
					/>
				<linearGradient id="SVGID_28_" gradientUnits="userSpaceOnUse" x1="74.4625" y1="1.2156" x2="69.4039" y2="22.4347">
					<stop  offset="0" style="stop-color:#FFFFFF;stop-opacity:0.65"/>
					<stop  offset="1" style="stop-color:#FFFFFF;stop-opacity:0"/>
				</linearGradient>
				<path fill="url(#SVGID_28_)" d="M81.5,19.1c0.1-0.6,1.8-13.6-3.1-17.6c-0.9-0.8-2-1.1-3.3-1.1c-0.9,0-1.9,0.2-3,0.6
					c-4.7,1.7-8.7,6.3-11.5,13.3c-2.1,5.3-2.8,9.9-2.8,10.1c0,0.2,0.1,0.3,0.2,0.3c0,0,0,0,0,0c0.1,0,0.3-0.1,0.3-0.2
					c0-0.2,2.9-19,13.9-23C74.6,0.7,76.6,0.8,78,2c4.7,3.8,2.9,16.9,2.9,17.1c0,0.2,0.1,0.3,0.2,0.3c0,0,0,0,0,0
					C81.3,19.4,81.5,19.3,81.5,19.1z"/>
				<g>
					<linearGradient id="SVGID_29_" gradientUnits="userSpaceOnUse" x1="79.6024" y1="7.7776" x2="82.0152" y2="24.0788">
						<stop  offset="0" style="stop-color:#000000;stop-opacity:0"/>
						<stop  offset="1" style="stop-color:#000000;stop-opacity:0.4"/>
					</linearGradient>
					<path fill="url(#SVGID_29_)" d="M83.5,12.7C83.3,7.1,82,3.3,79.6,1.4c-1.3-1-2.8-1.5-4.6-1.4c1.4,0.1,2.6,0.6,3.6,1.4
						c2.4,1.9,3.7,5.7,3.9,11.3c0.1,3.9-0.3,7.3-0.3,7.5c-0.1,0.6-0.5,1.1-1,1.2c0.1,0,0.2,0.1,0.3,0.1c0.8,0.1,1.6-0.5,1.7-1.3
						C83.2,20,83.7,16.6,83.5,12.7z"/>
				</g>
				<linearGradient id="SVGID_30_" gradientUnits="userSpaceOnUse" x1="63.8889" y1="18.8065" x2="72.3481" y2="1.0553">
					<stop  offset="0" style="stop-color:#000000;stop-opacity:0"/>
					<stop  offset="1" style="stop-color:#000000;stop-opacity:0.4"/>
				</linearGradient>
				<path fill="url(#SVGID_30_)" d="M72.2,3.6c-10.3,3.8-13.1,21.8-13.1,22c-0.1,0.6-0.5,1.1-1,1.2c0.1,0,0.2,0,0.3,0.1
					c0.1,0,0.1,0,0.2,0c0.7,0,1.4-0.5,1.5-1.3c0-0.2,2.8-18.3,13.1-22c0.7-0.3,1.3-0.4,1.9-0.5C74.2,3,73.3,3.2,72.2,3.6z"/>
				<g opacity="0.45">
					<linearGradient id="SVGID_31_" gradientUnits="userSpaceOnUse" x1="58.0418" y1="18.4601" x2="58.5844" y2="24.6793">
						<stop  offset="0" style="stop-color:#000000;stop-opacity:0"/>
						<stop  offset="1" style="stop-color:#000000;stop-opacity:0.4"/>
					</linearGradient>
					<path fill="url(#SVGID_31_)" d="M58.3,24.7c-0.5-0.2-0.9-0.6-1.1-1.2C57.1,24.4,57,25,57,25.1c-0.1,0.8,0.5,1.6,1.3,1.7
						c0.1,0,0.1,0,0.2,0c0.7,0,1.4-0.5,1.5-1.3c0,0,0.1-0.5,0.2-1.3C59.7,24.8,59,25,58.3,24.7z"/>
					<linearGradient id="SVGID_32_" gradientUnits="userSpaceOnUse" x1="81.5168" y1="16.4118" x2="82.0594" y2="22.6312">
						<stop  offset="0" style="stop-color:#000000;stop-opacity:0"/>
						<stop  offset="1" style="stop-color:#000000;stop-opacity:0.4"/>
					</linearGradient>
					<path fill="url(#SVGID_32_)" d="M81.3,19c-0.4-0.2-0.8-0.5-1-0.9c-0.1,0.6-0.1,1.2-0.2,1.7c-0.1,0.8,0.5,1.6,1.3,1.7
						c0.8,0.1,1.6-0.5,1.7-1.3c0-0.1,0.1-0.7,0.2-1.8C82.8,19,82,19.2,81.3,19z"/>
				</g>
			</g>
		</g>
	</g>
</g>
</svg>
