<?xml version="1.0" encoding="utf-8"?>
<!-- Generator: Adobe Illustrator 17.1.0, SVG Export Plug-In . SVG Version: 6.00 Build 0)  -->
<!DOCTYPE svg PUBLIC "-//W3C//DTD SVG 1.1//EN" "http://www.w3.org/Graphics/SVG/1.1/DTD/svg11.dtd">
<svg version="1.1" id="Layer_1" xmlns="http://www.w3.org/2000/svg" xmlns:xlink="http://www.w3.org/1999/xlink" x="0px" y="0px"
	 width="26.7px" height="30px" viewBox="0 0 26.7 30" enable-background="new 0 0 26.7 30" xml:space="preserve">
<g>
	<path fill="#FFFFFF" d="M23.2,5.6c-0.1,0-0.2-0.1-0.2-0.1l-2.4-0.1l-1.5-1.5C19,3.8,19,3.8,18.9,3.8l-1.3,26.1l9-1.9L23.3,5.9
		C23.3,5.8,23.3,5.6,23.2,5.6z"/>
	<path fill="#FFFFFF" d="M17.9,3.6l-0.7,0.2c-0.4-1.2-0.9-2-1.6-2.5c-0.5-0.4-1.1-0.5-1.7-0.5c-0.1-0.2-0.3-0.3-0.4-0.4
		c-0.7-0.5-1.5-0.6-2.6-0.2C7.8,1.3,6.5,5.3,6,7.3L3.3,8.1c0,0-0.6,0.2-0.8,0.4C2.3,8.7,2.3,9.2,2.3,9.2L0,26.8L16.9,30l1.3-26.3
		C18.2,3.5,18,3.6,17.9,3.6z M13.8,4.8l-3,0.9c0.4-1.5,1.1-3.1,2.6-3.7C13.8,2.8,13.9,3.9,13.8,4.8z M11.4,1.1
		c0.6-0.2,1.1-0.2,1.5,0C11,2,10.1,4.2,9.8,6.1L7.4,6.8C7.8,5,9,1.9,11.4,1.1z M13,14c-0.1-0.1-0.3-0.1-0.5-0.2s-0.4-0.1-0.6-0.2
		c-0.2-0.1-0.4-0.1-0.7-0.1c-0.2,0-0.5,0-0.8,0c-0.2,0-0.5,0.1-0.7,0.1c-0.2,0.1-0.4,0.2-0.5,0.3C9.1,14,9,14.2,8.9,14.3
		c-0.1,0.2-0.1,0.3-0.1,0.5c0,0.1,0,0.3,0.1,0.4C9,15.3,9,15.5,9.1,15.6c0.1,0.1,0.3,0.3,0.4,0.4c0.2,0.1,0.4,0.3,0.6,0.4
		c0.3,0.2,0.7,0.4,1,0.7s0.6,0.6,0.9,0.9c0.3,0.4,0.5,0.8,0.6,1.2c0.2,0.5,0.2,1,0.2,1.5c0,0.9-0.2,1.7-0.6,2.3
		c-0.3,0.6-0.8,1.1-1.3,1.5s-1.1,0.6-1.8,0.7c-0.6,0.1-1.3,0-2-0.1l0,0l0,0l0,0l0,0c-0.3-0.1-0.7-0.2-1-0.3s-0.6-0.3-0.8-0.4
		c-0.2-0.1-0.5-0.3-0.7-0.5c-0.2-0.2-0.4-0.3-0.5-0.5l0.8-2.6C5,20.9,5.2,21,5.4,21.2c0.2,0.1,0.4,0.3,0.6,0.4
		c0.2,0.1,0.5,0.2,0.7,0.3C7,22,7.2,22.1,7.5,22.1c0.2,0,0.4,0,0.6,0s0.3-0.1,0.5-0.2c0.1-0.1,0.2-0.2,0.3-0.4C9,21.4,9,21.2,9,21
		c0-0.2,0-0.3-0.1-0.5c0-0.2-0.1-0.3-0.2-0.5c-0.1-0.2-0.2-0.3-0.4-0.5c-0.2-0.2-0.4-0.3-0.6-0.5c-0.3-0.2-0.6-0.5-0.8-0.7
		c-0.2-0.3-0.5-0.5-0.6-0.8c-0.2-0.3-0.3-0.6-0.4-1s-0.1-0.7-0.1-1.2c0-0.7,0.2-1.3,0.4-1.9c0.2-0.6,0.6-1.1,1-1.6s0.9-0.8,1.5-1.1
		s1.3-0.5,2.1-0.6c0.4,0,0.7-0.1,1-0.1s0.6,0,0.9,0.1c0.3,0,0.6,0.1,0.8,0.2c0.2,0.1,0.4,0.1,0.6,0.2L13,14z M14.9,4.5
		c0-0.1,0-0.2,0-0.4c0-0.9-0.2-1.7-0.4-2.3c0.2,0,0.4,0.1,0.6,0.2c0.5,0.4,0.9,1.1,1.2,2L14.9,4.5z"/>
</g>
</svg>
