<?xml version="1.0" encoding="utf-8"?>
<!-- Generator: Adobe Illustrator 17.1.0, SVG Export Plug-In . SVG Version: 6.00 Build 0)  -->
<!DOCTYPE svg PUBLIC "-//W3C//DTD SVG 1.1//EN" "http://www.w3.org/Graphics/SVG/1.1/DTD/svg11.dtd">
<svg version="1.1" id="Layer_1" xmlns="http://www.w3.org/2000/svg" xmlns:xlink="http://www.w3.org/1999/xlink" x="0px" y="0px"
	 width="215px" height="30px" viewBox="-82.5 -11.5 215 30" enable-background="new -82.5 -11.5 215 30" xml:space="preserve">
<g>
	<path fill="#FFFFFF" d="M33.6-0.4c-3.8,0-6.2,4.5-6.2,8.2c0,2.6,1.3,4.8,4,4.8h0c4,0,6.1-5,6.1-8.2C37.6,2.1,36.6-0.4,33.6-0.4z
		 M31.6,11.6L31.6,11.6c-2,0-3-1.8-3-4c0-3.2,2-7.1,4.9-7.1c2.3,0,2.9,2.2,2.9,3.8C36.4,7.4,34.4,11.6,31.6,11.6z"/>
	<path fill="#FFFFFF" d="M46-0.4c-1.7,0-3.2,1.1-4.4,2.8h-0.1L42-0.2h-1.1c-0.2,1.1-0.4,2.7-0.7,4.3l-2.5,13.3h1.1l1-5.4h0.1
		c0.5,0.3,1.3,0.5,2.5,0.5c4,0,6.9-4.7,6.9-9C49.2,1.6,48.4-0.4,46-0.4z M42.5,11.6c-1,0-1.8-0.3-2.4-0.7l0.8-4.3c0.7-3.8,3-6,4.8-6
		c1.8,0,2.4,1.7,2.4,3.2C48.1,6.9,45.8,11.6,42.5,11.6z"/>
	<path fill="#FFFFFF" d="M56.7-0.4c-3.6,0-6.1,4.7-6.1,8.3c0,2.4,1,4.7,3.9,4.7c1.6,0,2.8-0.5,3.4-0.9l-0.3-0.9
		c-0.6,0.3-1.5,0.8-2.9,0.8c-1.3,0-2.3-0.7-2.7-2.1c-0.3-0.9-0.2-2.6-0.1-3.1c4.1,0,7.7-0.9,7.7-4C59.6,0.9,58.8-0.4,56.7-0.4z
		 M58.4,2.4c0,2.5-3.1,3-6.4,3c0.8-2.7,2.5-4.8,4.4-4.8C57.7,0.6,58.4,1.2,58.4,2.4L58.4,2.4z"/>
	<path fill="#FFFFFF" d="M67.7-0.4c-1.7,0-3.3,1-4.4,2.8h-0.1l0.4-2.6h-1.1c-0.1,1-0.3,2.2-0.5,3.7l-1.7,8.8h1.1l1.2-6.6
		c0.5-3,2.9-5.1,4.6-5.1c1.5,0,2.1,0.9,2.1,2.2c0,0.7-0.1,1.3-0.2,1.8l-1.5,7.7h1.1l1.4-7.7c0.1-0.7,0.2-1.3,0.2-1.9
		C70.5,0.3,68.9-0.4,67.7-0.4z"/>
	<path fill="#FFFFFF" d="M77.7,3.1c0,1.2,0.7,2.3,1.9,3.1C80.8,7,81.3,7.7,81.3,9c0,1.4-1.1,2.6-2.8,2.6c-0.9,0-1.7-0.4-2.2-0.7
		l-0.4,0.9c0.4,0.3,1.4,0.8,2.5,0.8c2.2,0,4-1.4,4-3.9c0-1.3-0.7-2.4-1.9-3.2c-1-0.7-1.7-1.4-1.7-2.5c0-1.3,1-2.3,2.5-2.3
		c0.7,0,1.4,0.3,1.8,0.5l0.4-1c-0.4-0.3-1.2-0.5-2.1-0.5C79.3-0.4,77.7,1.2,77.7,3.1z"/>
	<path fill="#FFFFFF" d="M90.9-0.4c-3.8,0-6.2,4.5-6.2,8.2c0,2.6,1.3,4.8,4,4.8h0c4,0,6.1-5,6.1-8.2C94.9,2.1,93.9-0.4,90.9-0.4z
		 M88.9,11.6L88.9,11.6c-2,0-3-1.8-3-4c0-3.2,2-7.1,4.9-7.1c2.3,0,2.9,2.2,2.9,3.8C93.7,7.4,91.7,11.6,88.9,11.6z"/>
	<path fill="#FFFFFF" d="M104.3,6.7c-0.5,2.8-2.7,4.8-4.4,4.8c-1.5,0-2.1-0.9-2.1-2.3c0-0.6,0.1-1.2,0.2-1.9l1.4-7.5h-1.1l-1.5,7.6
		c-0.1,0.7-0.2,1.3-0.2,1.8c0,2.6,1.6,3.3,2.9,3.3c1.6,0,3.2-1,4.1-2.7h0.1l-0.3,2.4h1.1c0.1-1,0.2-2.2,0.5-3.7l1.7-8.8h-1.1
		L104.3,6.7z"/>
	<path fill="#FFFFFF" d="M114.9-0.4c-0.1,0-0.3,0-0.5,0c-1.6,0-2.8,1.3-3.6,3h-0.1c0.2-1.1,0.3-1.9,0.3-2.7h-1
		c-0.1,1.1-0.3,2.5-0.6,4.1l-1.6,8.4h1.1l1.2-6.4c0.5-2.7,2.3-5.2,4-5.2c0.2,0,0.3,0,0.4,0L114.9-0.4z"/>
	<path fill="#FFFFFF" d="M114.4,8c0,2.4,1.1,4.6,4.1,4.6c1.5,0,2.6-0.4,3.2-0.7l-0.3-1c-0.6,0.3-1.6,0.7-2.7,0.7
		c-2.3,0-3.2-1.6-3.2-3.7c0-3.2,2.1-7.2,5.6-7.2c0.9,0,1.5,0.2,2,0.4l0.4-1c-0.3-0.2-1.2-0.5-2.2-0.5C117-0.4,114.4,4.1,114.4,8z"/>
	<path fill="#FFFFFF" d="M132.5,2.3c0-1.4-0.9-2.7-2.9-2.7c-3.6,0-6.1,4.7-6.1,8.3c0,2.4,1,4.7,3.9,4.7c1.6,0,2.8-0.5,3.4-0.9
		l-0.3-0.9c-0.6,0.3-1.5,0.8-2.9,0.8c-1.3,0-2.3-0.7-2.7-2.1c-0.3-0.9-0.2-2.6-0.1-3.1C128.9,6.4,132.5,5.5,132.5,2.3z M129.4,0.6
		c1.2,0,2,0.6,2,1.8v0c0,2.5-3.1,3-6.4,3C125.7,2.6,127.4,0.6,129.4,0.6z"/>
	<path fill="#FFFFFF" d="M-59.5-5.8c-0.1,0-0.2-0.1-0.2-0.1L-62.1-6l-1.5-1.5c-0.1-0.1-0.1-0.1-0.2-0.1l-1.3,26.1l9-1.9l-3.3-22.1
		C-59.4-5.6-59.4-5.8-59.5-5.8z"/>
	<path fill="#FFFFFF" d="M-64.8-7.8l-0.7,0.2c-0.4-1.2-0.9-2-1.6-2.5c-0.5-0.4-1.1-0.5-1.7-0.5c-0.1-0.2-0.3-0.3-0.4-0.4
		c-0.7-0.5-1.5-0.6-2.6-0.2c-3.1,1.1-4.4,5.1-4.9,7.1l-2.7,0.8c0,0-0.6,0.2-0.8,0.4c-0.2,0.2-0.2,0.7-0.2,0.7l-2.3,17.6l16.9,3.2
		l1.3-26.3C-64.5-7.9-64.7-7.8-64.8-7.8z M-68.9-6.6l-3,0.9c0.4-1.5,1.1-3.1,2.6-3.7C-68.9-8.6-68.8-7.5-68.9-6.6z M-71.3-10.3
		c0.6-0.2,1.1-0.2,1.5,0c-1.9,0.9-2.8,3.1-3.1,5l-2.4,0.7C-74.9-6.4-73.7-9.5-71.3-10.3z M-69.7,2.6c-0.1-0.1-0.3-0.1-0.5-0.2
		c-0.2-0.1-0.4-0.1-0.6-0.2c-0.2-0.1-0.4-0.1-0.7-0.1c-0.2,0-0.5,0-0.8,0c-0.2,0-0.5,0.1-0.7,0.1c-0.2,0.1-0.4,0.2-0.5,0.3
		c-0.1,0.1-0.2,0.3-0.3,0.4c-0.1,0.2-0.1,0.3-0.1,0.5c0,0.1,0,0.3,0.1,0.4c0.1,0.1,0.1,0.3,0.2,0.4c0.1,0.1,0.3,0.3,0.4,0.4
		c0.2,0.1,0.4,0.3,0.6,0.4c0.3,0.2,0.7,0.4,1,0.7c0.3,0.3,0.6,0.6,0.9,0.9c0.3,0.4,0.5,0.8,0.6,1.2c0.2,0.5,0.2,1,0.2,1.5
		c0,0.9-0.2,1.7-0.6,2.3c-0.3,0.6-0.8,1.1-1.3,1.5c-0.5,0.4-1.1,0.6-1.8,0.7c-0.6,0.1-1.3,0-2-0.1c0,0,0,0,0,0c0,0,0,0,0,0
		c0,0,0,0,0,0c0,0,0,0,0,0c-0.3-0.1-0.7-0.2-1-0.3c-0.3-0.1-0.6-0.3-0.8-0.4c-0.2-0.1-0.5-0.3-0.7-0.5c-0.2-0.2-0.4-0.3-0.5-0.5
		l0.8-2.6c0.1,0.1,0.3,0.2,0.5,0.4c0.2,0.1,0.4,0.3,0.6,0.4c0.2,0.1,0.5,0.2,0.7,0.3c0.3,0.1,0.5,0.2,0.8,0.2c0.2,0,0.4,0,0.6,0
		c0.2,0,0.3-0.1,0.5-0.2c0.1-0.1,0.2-0.2,0.3-0.4c0.1-0.1,0.1-0.3,0.1-0.5c0-0.2,0-0.3-0.1-0.5c0-0.2-0.1-0.3-0.2-0.5
		c-0.1-0.2-0.2-0.3-0.4-0.5c-0.2-0.2-0.4-0.3-0.6-0.5c-0.3-0.2-0.6-0.5-0.8-0.7c-0.2-0.3-0.5-0.5-0.6-0.8c-0.2-0.3-0.3-0.6-0.4-1
		c-0.1-0.4-0.1-0.7-0.1-1.2c0-0.7,0.2-1.3,0.4-1.9c0.2-0.6,0.6-1.1,1-1.6c0.4-0.5,0.9-0.8,1.5-1.1c0.6-0.3,1.3-0.5,2.1-0.6
		c0.4,0,0.7-0.1,1-0.1c0.3,0,0.6,0,0.9,0.1c0.3,0,0.6,0.1,0.8,0.2c0.2,0.1,0.4,0.1,0.6,0.2L-69.7,2.6z M-67.8-6.9c0-0.1,0-0.2,0-0.4
		c0-0.9-0.2-1.7-0.4-2.3c0.2,0,0.4,0.1,0.6,0.2c0.5,0.4,0.9,1.1,1.2,2L-67.8-6.9z"/>
	<path fill="#FFFFFF" d="M-45.2,4.9c-0.9-0.5-1.4-0.9-1.4-1.5c0-0.7,0.7-1.2,1.7-1.2c0.9,0,1.7,0.3,2.2,0.5l0.8-2.5
		c-0.6-0.3-1.6-0.6-3-0.6c-3.1,0-5.3,1.8-5.3,4.3c0,1.4,1,2.5,2.4,3.3c1.1,0.6,1.5,1.1,1.5,1.7c0,0.7-0.5,1.2-1.6,1.2
		c-1.1,0-2.3-0.4-2.9-0.8l-0.9,2.5c0.7,0.5,2.1,0.9,3.5,0.9c3.2,0,5.5-1.6,5.5-4.4C-42.7,6.8-43.8,5.7-45.2,4.9z"/>
	<path fill="#FFFFFF" d="M-32.4-0.4c-1.6,0-2.8,0.8-3.8,1.9l-0.1,0l1.4-7.1h-3.6l-3.5,18.2h3.6l1.2-6.3c0.5-2.4,1.7-3.9,2.8-3.9
		c0.8,0,1.1,0.6,1.1,1.3c0,0.5-0.1,1.1-0.2,1.6l-1.4,7.3h3.6l1.4-7.5c0.2-0.8,0.3-1.8,0.3-2.4C-29.4,0.8-30.5-0.4-32.4-0.4z"/>
	<path fill="#FFFFFF" d="M-21.3-0.4c-4.3,0-7.2,3.9-7.2,8.2c0,2.8,1.7,5,4.9,5c4.2,0,7.1-3.8,7.1-8.2C-16.5,2-18-0.4-21.3-0.4z
		 M-23.1,10.1c-1.2,0-1.7-1-1.7-2.3c0-2.1,1.1-5.4,3-5.4c1.3,0,1.7,1.1,1.7,2.2C-20.1,6.7-21.2,10.1-23.1,10.1z"/>
	<path fill="#FFFFFF" d="M-7.3-0.3c-1.4,0-2.8,0.9-3.8,2.3h-0.1l0.2-2h-3.2c-0.2,1.3-0.4,3.3-0.7,4.7l-2.5,13.1h3.6l1-5.4h0.1
		c0.4,0.3,1.2,0.5,2.1,0.5c4.2,0,7-4.3,7-8.7C-3.6,1.8-4.7-0.3-7.3-0.3z M-10.7,10.1c-0.7,0-1.1-0.2-1.5-0.5l0.6-3.4
		C-11.2,4-10,2.5-8.8,2.5c1.1,0,1.4,1,1.4,2C-7.3,6.8-8.7,10.1-10.7,10.1z"/>
	<path fill="#FFFFFF" d="M1.5-5.5c-1.1,0-2.1,1-2.1,2.2c0,1.1,0.7,1.9,1.7,1.9h0.1c1.1,0,2.1-0.9,2.1-2.2C3.3-4.7,2.6-5.5,1.5-5.5z"
		/>
	<polygon fill="#FFFFFF" points="-3.5,12.7 0.1,12.7 2.5,-0.1 -1.1,-0.1 	"/>
	<path fill="#FFFFFF" d="M11.7-0.1H9.2l0.1-0.6c0.2-1.2,0.9-2.4,2.1-2.4c0.5,0,0.8,0.1,1.1,0.2l0.7-2.8c-0.4-0.2-1.1-0.3-2-0.3
		c-1.3,0-2.5,0.4-3.5,1.2C6.6-3.8,6-2.2,5.7-0.7L5.6-0.1H4L3.5,2.6h1.7L3.2,12.7h3.6L8.7,2.6h2.5L11.7-0.1z"/>
	<path fill="#FFFFFF" d="M18.1,5.6C17.6,7,17.3,8,17.1,8.7H17c-0.1-0.7-0.2-1.8-0.3-3l-0.6-5.7h-3.8l2.2,11.6c0.1,0.3,0,0.4-0.1,0.6
		c-0.4,0.8-1.1,1.6-2,2.2c-0.7,0.5-1.4,0.8-2,1l1,3c0.7-0.2,2.2-0.7,3.5-1.9c1.6-1.5,3.1-3.9,4.7-7.1L24-0.1h-3.7L18.1,5.6z"/>
</g>
</svg>
