<?xml version="1.0" encoding="utf-8"?>
<!-- Generator: Adobe Illustrator 17.1.0, SVG Export Plug-In . SVG Version: 6.00 Build 0)  -->
<!DOCTYPE svg PUBLIC "-//W3C//DTD SVG 1.1//EN" "http://www.w3.org/Graphics/SVG/1.1/DTD/svg11.dtd">
<svg version="1.1" id="Layer_1" xmlns="http://www.w3.org/2000/svg" xmlns:xlink="http://www.w3.org/1999/xlink" x="0px" y="0px"
	 width="20px" height="20px" viewBox="0 0 20 20" enable-background="new 0 0 20 20" xml:space="preserve">
<g>
	<g>
		<path fill="#8FD5DE" d="M17,7.5c0-0.1,0-0.1-0.1-0.1c0,0-0.1-0.1-0.1-0.2c0.1,0,0.1,0,0.1,0c0,0,0.2-0.1,0.1-0.1
			C17,7,17,6.9,16.9,6.9c-0.1,0-0.1,0.1-0.3,0.1c0,0-0.1,0.2,0,0.2c0,0.1,0.1,0.2,0.2,0.3c0,0.1-0.1,0.3,0.1,0.3
			c0,0.1,0.3,0.2,0.3,0c-0.1,0,0-0.2-0.1-0.2c0-0.1,0-0.1-0.1-0.1c0,0,0.1,0,0.2,0c0-0.1-0.1-0.1-0.1-0.2C17,7.5,16.9,7.6,17,7.5z
			 M16,7.5c0-0.2-0.2-0.2-0.3-0.3c-0.1,0-0.1-0.1-0.2-0.1c-0.1,0-0.1,0-0.1,0c-0.1,0.1-0.1-0.1-0.2-0.1c0-0.1,0-0.2-0.2-0.2
			c-0.1,0.2-0.2,0.3-0.2,0.5c0.1,0,0.1,0,0,0.1c0.1,0,0.6,0,0.6-0.1c0,0,0.1,0.2,0.1,0c0.1,0,0.1,0.2,0.3,0.1
			C15.9,7.7,16.2,7.5,16,7.5z M10,0C4.5,0,0,4.5,0,10c0,5.5,4.5,10,10,10s10-4.5,10-10C20,4.5,15.5,0,10,0z M12.3,5.7
			C12.4,5.7,12.3,5.8,12.3,5.7c0,0.1,0,0.1,0,0.2c0.1,0,0.1-0.1,0.2-0.1c0,0.1-0.1,0.1,0,0.2c0,0,0.1,0.1,0.1,0.1
			c0.1,0,0.1,0.1,0.1,0.3c0.1,0,0.1,0,0.1-0.1c0.1,0,0.1,0.1,0,0.1c-0.1,0.1-0.2,0.1-0.3,0.1c0-0.1,0-0.1-0.1-0.1
			c-0.1,0,0-0.1,0-0.2c0,0,0.3,0,0.1,0c0-0.1,0-0.2-0.2-0.2c0-0.1,0-0.1,0-0.2C12.1,5.7,12.2,5.9,12.3,5.7z M12.2,6.5
			C12.2,6.5,12.2,6.5,12.2,6.5C12.3,6.6,12.2,6.6,12.2,6.5C12.2,6.6,12.2,6.6,12.2,6.5z M11.9,6.1C11.9,6.1,11.9,6.1,11.9,6.1
			C11.9,6,11.9,6.1,11.9,6.1c0.1-0.1,0.2-0.1,0.1,0C12,6.3,12,6.4,11.8,6.4c-0.1-0.1,0-0.1,0-0.2C11.7,6.2,11.9,6.2,11.9,6.1z
			 M10.6,13.2c0,0-0.2,0.2-0.2,0.2c0,0,0,0.3,0,0.3c0,0.1,0,0.3-0.1,0.3c0,0.1-0.1,0.2-0.1,0.3c-0.1,0.1-0.3,0.2-0.3,0.2
			c-0.1,0-0.1,0.1-0.2,0.1c0,0-0.1,0.1-0.1,0.1c0,0.1,0,0.3,0,0.4c0,0-0.1,0-0.1,0.1c-0.1,0,0,0.1-0.1,0.1c-0.1,0-0.2,0.1-0.2,0.2
			c0,0.1,0,0.2-0.1,0.3c0,0-0.2,0-0.2,0.1c0,0,0,0.2,0,0.2c0,0-0.2,0-0.2,0.1c-0.2,0-0.1,0-0.3,0.1c0,0,0,0.1,0,0.1
			c0,0.1-0.1,0-0.2,0.1c0,0,0.1,0.1,0.1,0.1c0,0.1-0.1,0.1-0.1,0.2c0,0-0.1,0.1-0.1,0.1c0,0.1,0,0.1,0,0.2c0,0,0,0,0,0.1
			c0,0,0-0.1,0.1-0.1c0-0.1,0.1,0,0,0c-0.1,0.1-0.1,0.1-0.1,0.2c-0.1,0-0.2,0.2-0.1,0.2c0,0,0,0.1,0,0.1c-0.2-0.1-0.4-0.1-0.6-0.2
			c0-0.2,0-0.9,0.1-0.9c0,0,0-0.2,0.1-0.2c0-0.1,0-0.2,0-0.4c0-0.1,0-0.2,0.1-0.3c0.2-0.1,0-0.8,0.2-0.8c0-0.4,0.1-0.6,0-1
			c0,0-0.2-0.2-0.2-0.2c-0.2,0-0.3-0.3-0.3-0.4c0-0.1-0.1-0.1-0.1-0.2c0,0-0.3-0.5-0.3-0.5c-0.2-0.1,0-0.2,0-0.4
			c-0.1,0,0-0.4,0.1-0.4c0,0,0-0.1,0.1-0.1c0,0.1,0.2-0.1,0.1-0.1c0-0.1,0-0.3,0-0.3c0-0.1-0.1-0.4-0.2-0.1c-0.1,0-0.3,0-0.4-0.2
			c0-0.1-0.1-0.2-0.2-0.3c0-0.1-0.3-0.3-0.4-0.3c0,0-0.1,0-0.1-0.1c-0.1,0-0.1-0.2-0.3-0.2c-0.2,0-0.3-0.1-0.4-0.1
			C5,10,4.8,10.1,4.7,10c-0.1,0-0.2-0.2-0.2-0.3c0-0.1-0.1-0.4-0.2-0.4C4.4,9.2,4.2,9,4.1,9C4.1,9,4,8.8,4,8.8
			c0-0.1-0.2-0.3-0.2-0.2c0,0.1,0.2,0.2,0.2,0.3c0,0,0.2,0.3,0.2,0.3c0.3,0.5-0.2,0.2-0.2-0.1c-0.1,0-0.2-0.3-0.2-0.4
			c0,0-0.2-0.3-0.1-0.3c0-0.2-0.1-0.2-0.3-0.2c0,0-0.2-0.2-0.2-0.2C3.2,8,3.1,7.8,3,7.8c0-0.1-0.1-0.3,0-0.4c0-0.2,0-0.6-0.2-0.7
			c0.4-0.9,1.1-1.8,1.8-2.5c0,0,0.1-0.1,0.1-0.1c0,0.1,0,0.1,0,0.2c0,0,0.1,0.1,0.1,0.2c0.1,0,0.2,0,0.2,0c0,0-0.1,0-0.1,0
			c0,0.2-0.1,0.1-0.2,0.1c0,0-0.3-0.1-0.2,0.1c0,0,0,0,0.1,0.1c0.1,0,0.2,0.1,0.3,0.1c0.1,0,0.1,0,0.2,0c0,0,0.2-0.1,0.1-0.1
			c0-0.1,0-0.1-0.1-0.1c0-0.1,0.2,0,0.3,0c0.1-0.1,0-0.1,0.1-0.2c0.1-0.1,0.1,0,0.2-0.1c0.1,0,0.1,0.1,0.1,0.1c0,0,0.3,0.4,0.3,0.1
			c0.1,0,0.1,0.2,0.1,0.3c0.2,0,0.2-0.1,0.2-0.3c0,0,0-0.1,0-0.1c0.1,0,0.1,0.1,0.1,0c0,0,0,0,0,0.1c0.1,0,0.1,0,0.2,0
			c0,0,0,0.2,0,0.3c0,0.1-0.2,0.1-0.2,0.1C6.3,4.9,6.7,5,6.7,5.1c0,0-0.2,0-0.2,0c-0.1,0-0.3,0.1-0.4,0c0.1,0,0.1-0.1,0.2-0.2
			c-0.1,0-0.2,0-0.2,0.1c0,0.2-0.2,0-0.2,0.1c0,0-0.2,0.1-0.2,0.1c-0.2,0-0.2,0.2-0.2,0.4c0.1,0,0.3,0.2,0.2,0.3
			c0.2,0,0.3,0.1,0.4,0.1c0,0,0.1,0.1,0.1,0.1c0,0.1,0.1,0.1,0.2,0.1c0-0.1,0.2,0.1,0.2,0.2c0,0,0,0.1,0.1,0.2c0,0,0,0,0,0
			c0.1,0,0.2,0,0.2-0.1c-0.1,0-0.1-0.1-0.1-0.1C6.8,6.2,6.8,6.1,6.9,6c0,0.1,0.3,0,0.1-0.1c0-0.1,0.1-0.2,0-0.3c0,0-0.1,0-0.1-0.1
			c0.1,0,0-0.2,0-0.3c0,0,0.1,0,0.1,0c0.1,0,0.3,0.1,0.3,0c0.2,0.1,0,0.1,0.2,0.1c0,0,0.2,0.2,0.2,0.2c0,0,0,0.1,0,0.1
			c0,0,0,0,0,0.1c0,0,0.2,0,0.2,0c0.1,0,0.1-0.1,0.1-0.2c0.1,0,0.1,0.3,0.2,0.3C8.4,5.8,8.6,6,8.6,6c0,0,0.1,0,0.1,0.1
			c0,0,0.1-0.2,0.1,0c0,0,0.1,0.1,0.2,0.1c-0.1,0,0,0.1-0.1,0.1c0,0.1-0.2,0-0.2,0C8.5,6.7,8.2,6.5,7.9,6.5C7.8,6.6,7.6,6.8,7.6,7
			c0.1,0,0.2-0.1,0.3-0.2C8,6.8,8,6.7,8.1,6.7c0,0,0,0,0,0C8,6.8,8.1,6.9,8.1,7C8.2,7,8.3,7.1,8.3,7.1c0,0.1-0.1,0-0.1,0.1
			c0,0-0.1,0-0.1,0.1c-0.2,0-0.1,0-0.1,0c0,0,0.1,0,0.1,0c0-0.1,0-0.1,0-0.1C8,7.1,7.9,7.1,7.8,7.1c0,0-0.1,0.1-0.1,0.1
			c0,0.1-0.1,0.2-0.2,0.3c0,0-0.2,0.1-0.2,0.1c0,0.1-0.1,0.1-0.1,0.2c0,0-0.1,0.2-0.1,0.2C7.1,8.1,7.1,8.3,6.9,8.3
			C6.8,8.5,6.7,8.4,6.7,8.7C6.7,8.7,6.8,9,6.8,9c0,0.1,0,0.2-0.1,0.2c0,0-0.1-0.1-0.1-0.1c0-0.1-0.1-0.2-0.1-0.3
			c-0.1-0.1-0.1,0-0.2,0C6.3,8.7,6,8.7,6,8.7c0,0,0,0.1,0.1,0.1c-0.1,0-0.1,0.1-0.2,0c-0.1,0-0.1-0.1-0.2-0.1C5.4,8.8,5.3,9,5.3,9.2
			c0,0,0,0.4,0,0.4c0,0.1,0.1,0.2,0.1,0.3c0.1,0,0.2,0.2,0.3,0.2c0,0.1,0,0.1,0.1,0.1c0,0,0.1,0,0.1-0.1c-0.1,0,0-0.2,0.1-0.2
			c0,0.1,0.1,0,0.1,0c0,0,0.1-0.1,0.1-0.1c0-0.1,0.1,0,0,0.1c-0.1,0-0.1,0.1-0.1,0.1c0,0.1,0,0.2-0.1,0.2c0,0.1,0.1,0.1,0,0.2
			c0.1,0,0.2,0,0.3,0c0,0,0,0,0-0.1c0.2,0,0,0.3,0.1,0.3c0,0.1,0.1,0.2,0.1,0.3c0.1,0,0.1,0.1,0.1,0.2c0.1,0,0.3,0,0.3-0.1
			C7,10.9,7.1,11,7,11.1c0.3,0,0.1-0.3,0.2-0.3c0,0,0,0,0.1,0c0.1,0,0.1-0.1,0.1-0.1c0,0,0.1,0,0.1,0c0,0,0,0,0.1,0
			c0.1,0,0.1,0,0.2-0.1c0.1,0,0.1,0.2,0.2,0.2c0.1,0,0.2,0,0.3,0c0,0,0.1,0,0.1,0.1c0.1,0,0.1,0.1,0.1,0c0,0,0,0,0,0
			c0,0,0.1,0,0.1,0.1c0,0.1,0.1,0.1,0.1,0.1c0.1,0,0,0.1,0.1,0.1c0.1,0,0.1,0.1,0.2,0.1c0-0.1,0.1,0,0.1,0c0,0,0,0,0.1,0.1
			c0.1,0.1,0,0.1,0.1,0.2c0.1,0,0.1,0.2,0.1,0.2c0,0,0,0.2,0,0.2c-0.1,0,0.1,0.1,0.1,0c0.1,0,0.1,0.1,0.2,0.1c0,0.1,0.1,0.1,0.1,0
			c0.1,0,0.1,0.2,0.1,0.3c0.1,0,0.1-0.1,0.2-0.1c0.1,0,0.1,0,0.1,0c0.1,0,0.2,0.1,0.3,0.2C10.7,12.6,10.7,13,10.6,13.2z M8.5,7
			c0,0.1,0,0.1-0.1,0.1C8.4,7,8.4,7,8.5,7z M8.1,10C8,10,8,10.1,8.1,10C8,10,8.1,10,8.1,10z M7.5,10c0,0-0.2,0-0.2,0
			C7.3,10,7.4,10,7.5,10c0,0-0.1-0.1-0.1-0.1c0.1,0,0.2,0.1,0.2,0.1c0-0.1,0,0,0-0.1c0,0,0.1,0.1,0.1,0.1C7.7,10,7.7,10,7.5,10z
			 M7.6,10.6C7.6,10.7,7.6,10.7,7.6,10.6C7.6,10.6,7.6,10.6,7.6,10.6C7.6,10.6,7.6,10.6,7.6,10.6z M6.9,9.7c-0.1,0-0.2-0.1-0.2-0.1
			c0.1,0,0.1,0,0.2,0C7,9.6,7,9.7,7.2,9.7c0,0,0.2,0.1,0,0.2C7.1,9.8,7,9.8,6.9,9.7z M7.1,10C7.1,10,7.1,10.1,7.1,10
			C7,10,7.1,9.9,7.1,10z M7,10.1C7,10.1,6.9,10.1,7,10.1C7,10,7,10,7,10.1z M6.6,9.6c0,0.1-0.2,0.1-0.1,0C6.4,9.5,6.5,9.5,6.6,9.6
			C6.5,9.6,6.5,9.6,6.6,9.6z M10.9,5.1c-0.1,0-0.1,0-0.2-0.1c0,0,0.1-0.1,0-0.1c0,0,0.1-0.1,0.2-0.1c0,0,0,0,0,0c0,0,0,0.1,0,0.1
			c0,0,0.2,0,0.2,0c0.2,0,0.2-0.1,0.2,0c0.1,0,0.1,0,0.1-0.1c0,0.1,0.1,0.1,0,0.1c-0.1,0-0.1,0.1-0.2,0.1
			C11.1,5.1,10.9,5.1,10.9,5.1z M16.7,13.8c0,0,0,0.1,0,0.1c0,0,0,0-0.1,0c0,0.1-0.1,0.3-0.1,0.4c-0.1,0,0,0.2,0,0.4
			c0,0-0.1,0.1-0.1,0.1c-0.3,0-0.2-0.8-0.2-1c0.1,0,0.1,0.1,0.1,0c-0.1,0-0.1-0.1,0-0.1c0.1,0,0.2,0.1,0.2,0c-0.2,0,0-0.2,0-0.1
			c0.1,0,0-0.2,0.1-0.2c0,0.1,0,0.3,0.1,0.3C16.9,13.7,16.7,13.7,16.7,13.8z M16.7,13.4C16.7,13.4,16.7,13.4,16.7,13.4
			C16.7,13.4,16.7,13.4,16.7,13.4z M16.8,11.2c-0.1,0-0.1,0.1-0.1,0.1c-0.1,0-0.1,0.1-0.1,0.1c0,0.1-0.2,0.2-0.2,0.3
			c-0.1,0.1-0.2,0.2-0.2,0.3c0,0-0.3,0.3-0.2,0.3c0,0.1-0.1,0.6,0,0.6c0,0,0.1,0.5,0,0.5c0,0.1-0.1,0.2-0.1,0.3c0,0-0.1,0-0.1,0.1
			c-0.1,0-0.1,0.2-0.2,0.2c0,0.2-0.1,0.3-0.1,0.5c0,0-0.1,0.3-0.1,0.3c-0.1,0.1-0.3,0.3-0.3,0.4c0,0-0.2,0.2-0.2,0.3
			c0,0-0.4,0.1-0.4,0.1c-0.1,0-0.3,0.1-0.4,0c0-0.1,0-0.2-0.1-0.3c0,0,0-0.2-0.1-0.2c0,0-0.2-0.5-0.2-0.5c0-0.1,0-0.2-0.1-0.2
			c0-0.2-0.1-0.3-0.1-0.5c0,0-0.1-0.4-0.1-0.4c0-0.2,0.1-0.3,0.1-0.5c0-0.2,0-0.4-0.1-0.5c0,0-0.1-0.1-0.1-0.2
			c-0.1-0.1-0.1-0.2-0.1-0.3c0.1-0.1,0.1-0.4,0.1-0.5c-0.1-0.1-0.2,0-0.3,0c-0.1-0.2-0.7-0.1-0.8-0.1c0,0.1-0.4,0-0.4-0.1
			c-0.1,0-0.3-0.2-0.3-0.3c-0.1-0.1-0.3-0.4-0.3-0.5c-0.1,0-0.1-0.2,0-0.2c0,0,0-0.2-0.1-0.3c0-0.1,0.1-0.1,0.1-0.2
			c0-0.2,0-0.3,0.1-0.5c0-0.1,0.1-0.1,0.1-0.2c0.1-0.1,0.1,0,0.1-0.1c0.1,0,0.1-0.2,0.2-0.2c0,0,0-0.1,0-0.1c0,0,0.1-0.2,0.1-0.2
			c0.1-0.1,0-0.1,0.1-0.1c0,0,0.1-0.1,0.2-0.1c0,0,0.1-0.1,0.1-0.1c0,0.1,0.2,0,0.2,0c0-0.1,0.3-0.2,0.3-0.2c0-0.1,0.5,0,0.5,0
			c0,0,0,0,0,0c0.1,0,0.3,0.4,0.3,0.5c0.1,0,0.1,0,0.2,0c0,0.1,0.2,0.1,0.2,0.1c0.1,0,0.4,0,0.4-0.1c0.1,0,0.1,0.1,0.1,0.1
			c0.1,0,0.6,0,0.6,0.1c0.1,0,0.1,0.1,0.2,0.1c0,0.1,0.1,0.3,0.2,0.3c0,0.1,0,0.2,0.1,0.3c0,0.1,0.2,0.3,0.3,0.4
			c0,0.1,0.1,0.2,0.1,0.3c0,0,0,0.1,0.1,0.2c0,0.1,0.2,0.5,0.3,0.5c0,0-0.1,0.1,0,0.1c0,0,0.1,0,0.1,0c0.1,0,0.3,0,0.4-0.1
			C16.9,11,16.8,11.1,16.8,11.2z M13.3,7.4c0.1,0,0,0.1,0,0.1C13.2,7.5,13.2,7.5,13.3,7.4C13.3,7.4,13.3,7.4,13.3,7.4z M13.2,7.6
			C13.3,7.7,13.3,7.6,13.2,7.6c0.1,0,0.1,0.2,0,0.2C13.2,7.7,13.2,7.6,13.2,7.6z M13.5,7.9c0-0.1,0.1,0,0.1,0c0.1,0,0.1,0,0.1,0
			C13.8,8.1,13.7,8,13.5,7.9z M17.7,9.3c-0.3,0-0.5-0.2-0.7-0.2c0,0,0,0,0,0c0-0.1-0.2-0.4-0.3-0.3c0,0,0.1,0.2,0.1,0.2
			c0,0,0,0.1,0.1,0.1c0.1,0.1,0,0.1,0,0.1c0.1,0,0.1,0,0.1-0.2c0,0,0,0,0,0c0,0.1,0,0.1,0,0.1c0.1,0.1,0,0,0,0.1
			c0.1,0,0.3-0.1,0.3-0.2c0,0,0,0.1,0,0.1c0,0,0.1,0.1,0.1,0.1c0,0,0.1,0.1,0.1,0c0.1,0,0.1,0.2,0,0.3c0,0.1-0.1,0.1-0.1,0.2
			c0,0.1,0,0.2-0.1,0.2c0,0-0.4,0.2-0.4,0.3c-0.1,0-0.3,0.1-0.4,0.2c0,0-0.2,0.1-0.3,0.1c-0.2,0-0.2-0.3-0.3-0.3c0,0,0-0.1-0.1-0.1
			c0.1,0-0.2-0.6-0.2-0.7c0,0-0.1-0.2-0.1-0.2c-0.1,0-0.1-0.2-0.2-0.3c-0.1,0-0.2-0.2-0.2-0.3c0.1,0,0.2,0,0.2-0.1
			c-0.1,0-0.1-0.1,0-0.1c0-0.1,0-0.1,0.1-0.2c0-0.1,0-0.2,0-0.3c-0.1,0-0.1,0-0.2,0c0,0.1-0.2,0-0.2,0c0-0.1-0.3,0.1-0.4-0.1
			c-0.1-0.1-0.1-0.2-0.1-0.3c0-0.1-0.1-0.1-0.2-0.1c-0.2,0,0,0.2-0.1,0.3c0.1,0-0.1,0.1-0.1,0.2c-0.2,0-0.1-0.2-0.2-0.3
			c0-0.1,0-0.1-0.1-0.1c0-0.1,0-0.2,0-0.2c0,0-0.1,0-0.2-0.1c-0.1,0-0.3-0.4-0.4-0.2c0,0.1,0,0.1,0,0.2c0.1,0,0.1,0.2,0.3,0.2
			c0,0,0,0.1,0,0.1c0.1,0,0.1,0.1,0.2,0.1c0,0.1-0.2-0.1-0.1,0c0,0.1,0,0.1-0.1,0.2c0-0.1,0-0.3-0.1-0.3c-0.1-0.1-0.2-0.1-0.3-0.2
			c-0.1,0-0.1-0.2-0.2-0.2c0,0-0.1,0.1-0.1,0.1c-0.1,0.1-0.4,0-0.4,0c0,0-0.2,0.4-0.2,0.5c0,0.1-0.1,0.1-0.1,0.2
			c0,0.1-0.4,0-0.4,0.1c-0.1,0-0.3-0.2-0.3-0.3c0,0,0-0.4,0.1-0.5c0,0,0,0,0.1,0.1c0.1,0,0.3,0,0.3-0.1c0.1,0,0.1,0,0.1,0.1
			c0.1,0,0.2,0,0.2-0.1c0,0-0.1,0-0.1-0.1c0.2-0.2-0.1-0.3-0.1-0.4c-0.1,0-0.2-0.1-0.1-0.1c0.1,0,0.3,0.1,0.2,0c0,0,0,0,0,0
			c0,0,0.1,0.1,0.1,0c0,0,0.2-0.1,0.1-0.1c0-0.1,0-0.1,0-0.1c0.2,0.1,0.1-0.1,0.2-0.1c0,0.1,0.1-0.1,0.1-0.1c0.1-0.1,0.2,0,0.2-0.1
			c-0.1,0-0.1-0.2-0.1-0.3c0.1,0,0.2-0.1,0.2,0c0,0,0,0.1,0,0.2c0.1,0.1,0.1,0,0.1-0.1c0,0-0.1-0.2-0.1-0.2c0,0-0.1,0-0.1,0.1
			c-0.1,0-0.2-0.1-0.4-0.1c0,0-0.1-0.2-0.1-0.2c-0.1-0.1,0.1-0.1,0.1-0.1c0-0.1,0.5-0.1,0.6-0.3c-0.2,0,0.2-0.3,0.2-0.3
			c0.1-0.1,0.2-0.2,0.3-0.2c0.1,0,0.8-0.2,0.8-0.1c0.1,0,0.5,0,0.5,0.1c0.1,0,0.2,0.1,0.3,0c0.1,0,0.4,0.1,0.4,0.2
			c-0.2,0-0.4,0-0.6,0c0,0,0,0,0,0.1c0.1,0,0.2,0.2,0.2,0.3c0.1,0,0.1-0.1,0.2-0.1c0,0.1,0.1,0.1,0.1,0c-0.1,0,0-0.1,0-0.1
			c0.1-0.1,0.2,0,0.2-0.1c1,1.2,1.7,2.8,1.9,4.5C17.9,9.3,17.7,9.3,17.7,9.3z"/>
	</g>
</g>
</svg>
