<?xml version="1.0" encoding="utf-8"?>
<!-- Generator: Adobe Illustrator 17.1.0, SVG Export Plug-In . SVG Version: 6.00 Build 0)  -->
<!DOCTYPE svg PUBLIC "-//W3C//DTD SVG 1.1//EN" "http://www.w3.org/Graphics/SVG/1.1/DTD/svg11.dtd">
<svg version="1.1" id="Layer_1" xmlns="http://www.w3.org/2000/svg" xmlns:xlink="http://www.w3.org/1999/xlink" x="0px" y="0px"
	 viewBox="0 0 601.3 601.3" enable-background="new 0 0 601.3 601.3" xml:space="preserve">
<g>
	<g>
		<path fill="#8FD5DE" d="M510.4,224.8c0.2-3.6-0.7-2.1-2.3-4.5c-0.4,0-2.3-4.2-1.6-5.1c1.8,0,1.7,0.4,3.9-0.4
			c0.3,0,5.4-1.6,3.2-1.6c-2.7-2.7-0.8-6-6.2-4.4c-2.9,0.9-4.3,3.9-7.6,4.1c0,0.7-3.5,7.5,0,7.5c0,3.8,4.3,5.4,4.6,10.3
			c0.2,3.7-3.3,8.4,3.3,9.8c0.9,3.8,7.7,5.2,8.7,1.2c-4.3,0,0.1-6.3-2.4-6.3c0-2-1.4-2-1.6-4.3c0.5-0.4,3.5,0.2,4.7,0
			c-0.2-2.3-3.1-3.9-3.1-5.9C512.9,225.1,510.2,228.1,510.4,224.8z M482.8,226.7c0.2-7.1-5.9-5.9-7.9-9.9c-2,0-2.8-1.6-5.5-1.6
			c-1.8-0.6-3.2-0.2-4.2,1.3c-4.2,1.6-1.7-2.1-4.8-2.1c0.1-4.1-1.5-5.2-5.9-4.7c-2.6,5.8-6.5,9.3-5.9,15.8c1.9,0.4,1.6,0.9,1.2,2.8
			c2.5,0.1,17.8-0.8,17.8-2.4c0.5,0,3.2,5.4,3.2,0.8c2.1,0,3.2,5,8.3,3.6C478.8,231.2,487.3,226.7,482.8,226.7z M300.7,0
			C134.6,0,0,134.6,0,300.7c0,166,134.6,300.7,300.7,300.7c166.1,0,300.7-134.6,300.7-300.7C601.3,134.6,466.7,0,300.7,0z
			 M369.9,171.4c3.2,0,0.4,2.4-0.3,2.4c0.5,0.2-0.1,2.1-0.1,2.8c2.9,0,3-1.8,5.1-2.4c-0.4,2.7-3.4,3.2-0.5,5.4
			c1.5,1.2,3.1,2.6,2.5,4.4c3.8,0,4.3,3.6,3.5,7.9c2.1,0,2,0.1,2-2c2,0.6,1.9,2.4,0,2.4c-1.9,3.7-6.8,3.6-10.3,3.6
			c0-2.9-0.6-3-3.2-2.2c-3.6,1.1-0.8-2.9-0.7-4.9c0.4,0,8.2,0.4,3.6-1.2c-0.2-4.3-1.2-5.5-5.1-5.5c0-2.9-1-2.7-1.5-5.9
			C364.2,171.5,368.6,176.5,369.9,171.4z M366.8,197.1c0.7,0,1.3,0,2,0c0,1-2,1.8-2.4,0.4C366.8,197.6,366.9,197.5,366.8,197.1z
			 M359.7,184.4c-1.3,0-2.2-1.4-1.7-2.5c0.6-1.4,1.6,1.6,2.9,1c1.6-0.2,4.7-2.6,3.1,2.1c-1.6,4.7-3.1,8.1-9,8.2
			c-2.1-2.1-0.1-3.2,0.4-5.5C351.4,186.6,359.3,185.4,359.7,184.4z M318.1,396.3c0,0.7-5.7,7.1-5.9,7.1c0,0.8-0.2,8.7-0.4,8.7
			c0,1.6-1.2,10.3-2.4,10.3c0,4.5-2.9,5.3-3.9,9.5c-2.4,1.8-8.9,4.7-9.9,6.7c-1.9,0-3.3,1.6-5.1,1.6c-0.3,0.5-4.3,4.3-3.6,4.3
			c-0.3,2.8,0.2,9.4-1.3,11.2c-1,1.2-2.5,1.1-1.8,3c-2.2,0,0.1,1.6-3.4,1.6c-2.2,0-6.1,3.2-6.2,5.8c-0.2,3.3-1,5.6-3.8,7.6
			c0,1.1-5.1,1.4-5.1,4.3c0.5,0,0,5.4,0,5.9c-1.5,0-5.3,1.5-5.9,2.7c-5.2,0-4.5,0.5-7.9,2.8c0,0.7-0.5,3.2-1.2,3.2
			c0,4-2.8,0.4-5.1,2.4c0.9,0,2.1,3.9,1.6,3.9c0,3.5-2.2,3.8-4.3,6.3c-1,0.7-2,3.5-2.8,3.5c0,2.3-1.2,4.5-1.2,6.7c0.5,0,0,1,0.4,2
			c1.1-0.3,1.1-1.6,1.6-1.6c0-2,3.1,1.2,1.2,1.2c-1.6,2.5-3.4,2.5-4.3,5.9c-2.8,0-5.4,7.1-2.8,7.1c0,1.3,0.5,2.3,1.1,3.4
			c-6.4-1.8-12.8-3.8-19-6.1c-0.3-7.2-0.1-26,2.5-26c0-1.2,1-6.3,2-6.3c0-3.1,0.4-6.9,0-10.7c-1.2-2.4,1.5-5.4,2.4-9.1
			c4.6-2.3,1.3-25.3,4.7-25.3c0-11.5,2.6-18.2,0.8-28.8c0.9,0-5.2-6.4-5.1-6.3c-5.8,0-9.9-9.3-9.9-13.4c-0.6-1.8-2-4.5-2-6.7
			c1.3,0-8.3-14.1-8.3-13.8c-5.1-2.8,0.3-6.8,0.8-11.4c-4.4-1.5,0-13.4,2-13.4c0.2-1.5,1-2.6,2.4-3.2c1,3.9,5.6-2,2-2
			c0-2.6-0.3-8.2,0-9.5c0-4-3.5-11.9-6.3-3.6c-3-1.5-10.4-1.2-11.1-5.9c0.5-2.3-4.2-7.1-5.9-7.9c1.5-4.1-8-9.5-11.4-9.5
			c0-0.9-1.8-0.5-2.4-1.6c-3.5,0-4.3-4.7-8.3-4.7c-4.6,0-9.2-3.2-13.4-3.2c-1.4-2.8-8-1.7-9.5-4.7c-3.4,0-4.8-6.5-4.9-8.9
			c-0.1-2.9-2.5-13.1-6.6-13.1c0-2.5-5.7-6.7-7.1-6.7c0-0.4-2.3-5.5-3.2-5.5c0-1.7-6-9.4-6.9-6c-0.6,2.2,4.6,5.1,4.6,7.6
			c1,0,5,7.7,5.9,9.1c8.9,15.1-6.6,4.8-6.6-1.6c-2-1-5.1-8.6-5.1-10.7c-1.2-0.9-4.6-8.3-4.3-8.3c0-4.8-2.6-7.1-7.9-7.1
			c-0.2-0.5-4.7-6.7-4.7-6.7c0-2-3.5-8.1-5.5-9.1c0-4.1-2.1-9.2-1.2-13.4c0-7.4-0.1-16.7-6.9-22.3c13.2-28,31.7-53,54.1-73.9
			c1.1-0.1,3.9-1.9,4.4-2.1c0,2.5-0.6,2.6,0.4,5.5c0.5,0,2.8,3.8,2.7,5.5c2.2-0.2,5.2-1.5,5.9,1.2c-1.1,0-2.1-0.1-3.1-0.4
			c0.8,6.1-2.7,2.4-5.5,2.4c0-0.4-8.7-3.9-5.1,2c0.9,0,0.4,1.4,3.1,2.3c3,1,6.4,1.6,9.6,2.1c2.6,0.4,4.1-0.5,6.3-0.5
			c0-0.3,5.4-2.8,1.6-2.8c0.5-2.2-0.4-2.7-2.8-2.8c0.2-2.3,5.7-0.8,7.9-0.8c1.7-2.9,0.1-2.5,1.6-5.2c1.8-3.2,4-0.4,5.1-3.5
			c1.8,0.7,3.4,1.7,3.9,3.9c1.4,1.2,8.7,11.9,8.7,4.3c2.6,0.9,3.9,5.7,3.9,8.3c4.7-0.7,5.1-4.2,5.1-7.9c1.1,0-0.4-1.8-0.4-2.4
			c1.7-0.7,3.9,1.7,3.9-0.8c0.8,0,0.8,0.8,0.8,1.6c2.4,0.5,4-0.3,5.5,0.2c1,0.4,0.5,5.8,0,7.6c-0.6,2.4-5.2,2.4-5.2,3.6
			c-5.2,3.9,6.1,5.9,7.9,8.3c-1.1,0-5.1-0.5-5.1-0.8c-2.6,0-8.8,2.7-11,0.8c3.2,0,4.3-3.8,4.7-7.5c-2.9-1.1-6.4,0.7-7.2,3.6
			c-1.4,4.8-4.6-0.2-6.2,3.1c-0.6,0.2-6.3,2.9-6.3,2c-6.4,0.9-4.7,6.4-4.7,12.2c2.6,1.5,7.7,5.9,7.5,8.3c5.8,1,7.9,1.6,13,2.4
			c0.4,0.8,2.1,1.6,3.2,2c0,3.4,3.1,2.8,5.9,2.8c0-4.3,5,3.6,5.5,5.1c-0.7,0,1.2,4.4,1.6,5.9c-0.8-0.3-1,0-0.8,0.8
			c2.5,0.9,6.5,0.7,7.1-2c-2.4,0-1.6-2.7-1.6-4.4c-2.5-1.6-2.1-4.8,0.4-5.5c0,2.3,8.1-1.4,3.5-3.2c1.1-2.5,1.9-6.4,0.1-8.6
			c-1.2-1.4-2.6,0-3.2-2.1c3.1-0.8,0.8-6.7,0.8-9.5c1-0.4,3.6,0.6,3.6,0c3,0,8.1,3.9,9.9-0.8c5.1,2.3,1,4.5,6.3,2.8
			c0,1.2,6,7.1,6.7,7.1c0,0.3-0.1,2,1.2,2c0,1.3-0.8-0.7-0.8,1.6c0.7,0.1,4.7,0.8,4.7-0.8c2.5,0,4.3-3.1,4.3-5.5
			c1.6-1,4.4,8.7,6.3,8.7c1.4,2.2,5.9,5.4,5.9,7.5c0.9,1,2,0.7,2,3.6c1.2,0,3.6-4.7,3.6-0.4c1.1,0,4.3,2.4,4.7,4.3
			c-2.8,0-0.1,2.8-1.6,2.8c0,2.7-6.1,0.6-7.5,0.4c-1.9,8.5-13.3,2.4-20.2,4.6c-3.6,1.2-10.6,9.2-11,13.2c4.4,0,6.3-3.8,10.3-5.1
			c3.2,0,3.8-2,6.7-2.7c0,0.8,0.8,0.4,0.8,1.2c-5.6,0-2.2,3.6-0.6,6.3c1.6,2.5,3.4,3.4,5.7,3.6c-0.6,1.8-3.5,0.4-3.5,2.4
			c-1.1,0.4-3.2,1.1-3.6,2c-6.4,0.7-3.2,0.3-2.8-1.3c0.2,0.6,2.5,0,2.4,0.1c-0.4-1.9-1-1.6-0.4-2.8c-3.5,0-5.1,1.6-7.9,1.6
			c-0.5,0.9-2.9,3.2-3.9,3.2c-0.8,2.5-2.6,6.9-4.7,8.3c0-0.6-5.6,3.6-5.1,3.6c-1.3,2-2.6,1.9-3.2,5.1c-0.4,0.2-2,5.5-2,6.3
			c-2.4,1.6-3.4,8.3-7.5,8.3c-2.5,5.1-7.1,4.4-7.1,11.1c1.6,1.6,2.1,8.6,2.6,10.8c0.6,2.8,1.5,5.7-2.2,5.7c-0.3-0.4-2.8-4.3-2.4-4.3
			c0-1.6-2-6.8-3.2-8.5c-1.6-2.2-4.4,0.4-6.7-0.6c-1-1.9-7.5-2.4-9.9-2.4c0.4,1.5,1.5,1.9,1.6,3.6c-1.9,0.8-3.1,1.7-5.1,1.4
			c-3.4-0.5-3-3.2-6.8-2.8c-6,0.6-10.3,5.6-10.3,11.6c-0.7,0-0.7,11.8,0,11.8c0,3.3,2.8,5.8,2.8,8.3c2.7,0,5.7,5.9,8.3,5.9
			c0.3,2.1-1.3,2.4,3.2,2.4c0-0.2,2.4-1.5,2.8-3.2c-3.1-0.8,0-4.7,2-5.5c0,2.8,3.9-0.9,3.9-1.2c0.4-0.2,4.4-1.6,4.4-1.6
			c0-3.2,3,0.3,0.8,1.6c-2.1,0-2,3.6-3.1,3.6c-0.5,2.5-1.5,4.7-2.1,7.2c-0.8,3,1.7,3.4,0.9,6.2c3.1,0.6,6.3,0,9.5,0
			c0-0.6-0.1-1.1-0.4-1.6c4.6,0,0.4,8.7,3.2,8.7c0,3.3,1.6,5.8,1.6,7.9c2.1,1.4,3.4,3.3,2.8,5.9c2.6,0.4,8.3,1,8.3-2.4
			c4,0,4.3,2.7,4,5.5c8,0,3-7.9,6.3-7.9c0.3-1.3,0.8-1.5,1.6-0.7c1.6,0.9,2.9-1.6,4.2-2.4c0.4-0.3,1.9-1.1,2.1-1.1
			c1.1,0.7,1.2,0.5,1.7,1.2c2.2,0,4.3-1.2,6.2-2.5c2.8,0.4,1.9,6.5,7.2,6.8c2.1,0.2,7.1,0.8,8.9-0.5c0.5-0.3,2.1,1.1,2.3,1.6
			c1.8,0,1.6,1.6,2.4,1.5c0.2,0.4,0.4,0.5,0.8,0.4c0.2,0.7,1.6,0.9,2.4,2.7c0,1.7,3.5,2,3.5,3.2c2.6,1.3-0.9,1.6,3,2.8
			c2.2,0.7,4.1,1.8,6.5,1.9c0.7-2.8,3.1,0.4,4.3,0.4c0.6,1.3,0.9,0.3,1.6,1.6c3.6,3,1.2,1.9,2.8,5.1c1.8,1.2,2.3,5.2,2.8,7.5
			c-1.4,0-0.4,5.4-0.4,5.9c-1.7,0,4.3,3.3,4.3-0.8c2.5,0.4,4.1,3.2,5.9,3.2c-1,2.4,2.8,4.2,2.8,0.4c3.7,0.4,2.7,6,2.4,7.9
			c3.1,0,3.5-2.2,6.6-2.1c1.9,0,3.7,1.4,4.4-0.7c4.4,1.5,6.3,3,9.3,5.6C322.6,380.8,323.4,392.4,318.1,396.3z M255.4,210.1
			c0,2.1-1,2.6-3.1,2.8C252.7,210.9,253.4,211.3,255.4,210.1z M242.7,301.6c-1.2,0-2.7,1.1-2-1.2
			C241.7,300.5,242.7,300.8,242.7,301.6z M225.8,301.3c-0.6,1.2-6,1-6.7-0.4c2,0,3.5,0.8,5.5,0c0-1.1-0.9-2-1.6-3.1
			c2.1,0,4.6,1.6,7.5,1.6c0-1.8-0.8,0.4,0-2c1.2,0.3,4.2,3.1,4.3,4.3C230.5,301.2,230.3,301.3,225.8,301.3z M228.9,319.8
			c-0.3,1.1-0.3,1.2-1.6,1.2c0.1-0.5,0.3-1,0.4-1.6C228.1,319.5,228.5,319.7,228.9,319.8z M208.4,291.8c-2,0-5.9-1.8-7.1-3.6
			c2,0.1,3.9,0.9,5.1-1.2c5,0.5,5.4,4,9.5,4c0.8,1.3,5.1,4.4,0.9,4.8C213.7,296.1,209.7,294.4,208.4,291.8z M214.3,302.4
			c-0.8,0.1-1.6,0.3-2.4,0.4C212.2,301,213.9,299,214.3,302.4z M211.6,302.8c-1.5,0-3.9,0.6-2.8-2.4
			C210.8,300.7,211.7,301.5,211.6,302.8z M197.4,287.8c0,2.3-5.3,2.9-3.9-0.8c0.4,0.1,0.8,0.3,1.2,0.4
			C195.1,289.4,196.2,288.4,197.4,287.8z M326.9,154.1c-2.5,0-4.5-1.2-7.5-1.6c0-1.1,4.3-4.3,0.4-4.3c0,0,4.5-2,5.1-2
			c0,0.8-0.9,0.4,0.4,0.8c0.2,0.7-0.1,2.8,0,2.8c0,1,6.1-1.1,6.9-1.2c4.8-0.7,6.1-3.8,6.1,1.2c2.6,1,2.1-0.7,4-1.6
			c0,2.1,1.9,1.9-0.6,3.5c-2.3,1.5-4.2,2-7.1,2C333.7,153.7,326.9,154.9,326.9,154.1z M504.1,414.5c-1.4,0.7-1.2,3.5-1.2,4.3
			c-0.7,0-1.3,0-2,0c-0.2,3.9-2,8.3-2,11.4c-1.8,0-1.3,6.4-1.5,10.6c-1,1.3-1.9,2.7-2.9,4c-9.8,1.2-6.3-25.3-4.7-30
			c1.6,1.2,2.8,3.4,3.9,0c-2.8-0.6-2.1-1.6-1.2-4c1.9,1.2,7.5,3.2,7.5-1.2c-4.6,0,0.8-7.5,0.8-2.8c4,0,1.5-5,3.1-6.7
			c0,2,1.1,7.9,2.4,8.3C509.6,411.4,504.1,412.4,504.1,414.5z M501.3,403.8c0-1.4,0.3-1.3,1.2-2
			C502.9,403.9,503.3,404.5,501.3,403.8z M505.3,338.3c-2.8,0-1.6,2.9-1.6,3.9c-1.8,1.1-2.1,3.2-4.3,4.3c0,2.3-5.1,6.1-6.6,8
			c-1.7,2.2-6.8,6-7.5,8.8c0.2-0.7-9.4,10-7.2,10c0,2-2.7,17.7,0.8,17.7c0,1.4,3,14.6,1.2,14.6c0,4.2-2.8,6.8-2.8,10.2
			c-1.3,0.9-3.3,1.4-3.9,2.8c-2.4,0-3.6,5.1-4.7,5.1c0,5.5-1.6,9.6-1.6,15.8c0.4,0-3.2,8.9-3.2,9.5c-2.9,1.9-10.3,9-10.3,12.6
			c0,0-5.1,7.2-5.9,8.3c-1.5,0-13.4,2.2-13.4,3.2c-2.6,0-9.1,2-10.7-0.4c0-2.5-1.4-5.7-1.6-9.1c-1.2,0-1.4-5.1-2.7-5.1
			c0-1.1-7.5-16.2-6.3-16.2c0-1.6-1.3-6.7-1.6-6.7c0-5.5-4-10-4-15c-1.2,0-3.6-11-2.4-11c0-5.8,2-9.6,2.9-16
			c0.9-7.1-0.4-11.4-1.7-16.4c-0.7,0-2.9-3.8-3.2-4.7c-3.2-2.1-4.3-6.3-4.3-10.2c2.1-2.4,2.9-11.3,2.4-14.2c-4-1.9-5.6-1.2-9.9-1.2
			c-2.5-5.1-19.6-2-24.5-2c0,2.8-11.9-0.5-13-2.8c-2.9,0-8.7-6.2-8.7-9.1c-3.2-2.1-8.3-12.7-8.3-16.2c-2.8-1.4-1.9-6.7-0.4-6.7
			c0.4-1.5-1-6.1-1.6-8.4c-0.5-1.7,1.6-3.5,1.6-5.4c0-5.5,0.1-8,3.2-13.9c1-1.8,2.2-3.6,3.1-5.9c1.7-4.1,2.1-0.2,4.4-3.9
			c2.1-1,3.4-4.6,5.5-6.3c0.9-1.3,1-1.8,0-2.8c0.4,0,2.8-6.1,2.8-7.5c3.1-4.3,0.9-2.3,3.9-2c1.1-1.2,3-4.3,4.7-4.3
			c0.8-1.5,2.7-2.4,4.3-2.4c0,2.4,6.4-0.8,7.1-0.8c1.1-2.2,8.2-4.7,9.9-4.7c0-2.7,14,0.8,16.2,0.4c0-0.4,0-0.8,0-1.2
			c3,0.7,8.4,12.7,7.9,15.4c2.3,0,4.4-0.4,5.9,0c0,2.6,4.8,3.2,7,3.3c3,0.2,12-0.3,12-4.5c2.3,0,4.4,1.7,4,4.3
			c2.7,0.3,18.5,0.6,17.3,3.9c2.3,0,2.9,4,5.1,4c-0.5,2.7,2.7,9.9,5.1,9.9c0,2.4,1.5,6.7,3.6,8.3c1.1,3.4,4.8,10.5,8.3,12.6
			c-1.5,2.8,2.2,5.1,3.2,7.9c-0.2,0,0.8,4.1,2,4.7c0,2.8,5.9,14.2,9.1,14.2c0.2,1.4-3,2,1.2,2.3c0.6,0,4.3-0.1,4.3-0.7
			c3.4,0,8.1-0.5,11.5-1.6C508.8,330.4,504.6,333.3,505.3,338.3z M399.9,221.9c2.4,0.8-0.3,2.5-0.8,4.3c-1.2-1.2-0.8-1.6-1.6-3.6
			C399.4,223.5,400.2,223.3,399.9,221.9z M398.4,228.3c0.7,2.8,1.2,1.7,1.2-0.8c1.6,0,2,7.2-2.4,5.9
			C397.2,231.6,396,228.3,398.4,228.3z M407.8,239.3c0.6-2.3,2-0.5,3.3-0.1c3,1,2-0.1,4.2-1.1C415.3,244.5,411.6,239.7,407.8,239.3z
			 M532.9,279.2c-7.9,0-14.6-7.5-22.5-5.1c0.1-0.4,0-0.5-0.4-0.4c0.7-1.9-5.9-13.4-8.7-8.4c-0.8,1.4,2.3,6.3,3.6,7.2
			c0,1.1,0.7,3.4,1.6,4.3c2.3,2.2-0.5,3,0,4.4c2.9,0,2.5-0.5,3.2-4.7c0.4,0.3,0.3,0.4,0.8,0.4c-0.4,1.6-0.1,3,0.7,4.3
			c2.9,4.5-0.7,0.3,0.5,3.5c4,0,7.9-2.2,9.9-7.1c1.5,1.1-0.3,2.8,1.2,3.6c1.3,1.5,2.6,2.3,1.7,4.1c-0.6,1.2,3.4,3.6,2.6-0.9
			c4.3,1.2,3.6,6.6,0.4,8.7c0,2.1-2,2.2-2,4.9c0,1.7-1.3,4.8-2.8,5.3c0,1-11.8,6.2-11,8.3c-2.1,0-9.3,2.1-10.7,4.7
			c-1.5,0-7.4,2.1-7.9,3.2c-7.3,0-5.9-8.7-9.5-8.7c0.3-1.5-0.7-2.1-1.6-3.6c2.3,0-7.1-17.4-7.1-20.1c-1.4-0.7-3.3-5.7-3.6-7.5
			c-1.9-1.3-3.9-5.5-4.7-7.9c-2-1.3-6.7-7.1-7.5-9.9c2.8,0.3,7.1,0.9,7.1-2.8c-1.9,0-2.2-2.4-0.4-2.4c-0.6-2.4,1.3-4.2,1.7-6.1
			c0.5-2.3,1.5-5.8,1.5-8.6c-2.7,0-3.4,0.5-5.5,1.2c0,1.6-4.8-0.4-5.5-0.4c-1-2.1-8.5,2.7-10.6-1.6c-3.4-3.1-2.5-5.4-3.6-9.8
			c-0.6-2.2-3.6-2.3-5.4-2.7c-5.1-1-1.4,6.1-1.7,7.8c3.2,0-2,3.9-2,5.9c-5.3-1.1-3.5-7.1-6.7-8.7c-0.9-1.6-0.2-2.8-2.4-2.8
			c0-2.1,1.1-5.9-1.2-6.7c0-1-4.5-1.4-5.1-2.8c-2.8,0-9.4-10.7-11.4-7.1c-1.3,2.3,1.1,2.9,1.5,4.7c4.1-0.8,3.7,6.7,8.7,5.9
			c0,1.1,0.1,2.1,0.4,3.2c3.7-0.9,3.3,2.8,5.1,2.8c-1.4,1.8-5.6-2.9-4.5,1.1c0.7,2.3,0.3,4.2-2.6,6.4c0-2.5-0.2-9.1-2.8-9.1
			c-1.7-3.5-6.9-2.7-9.1-5.9c-1.8,0-2.5-5.5-5.5-5.9c-0.6,0.8-2.7,1.6-3.5,1.6c-1.7,3.3-11,0.3-11,0.8c-0.1,0-5.3,12.6-5.5,14.2
			c-0.6,3.5-3.4,3.6-4.3,7c-0.4,1.7-10.7,0.9-10.7,2.1c-4.4-1.5-8.3-4.6-8.3-9.5c-0.4,0,0.8-12.4,1.6-14.2c0.9,0.3,1.1,0.6,1.6,1.6
			c2.7-1,9.1,0.7,9.1-2.4c2.7,0.1,3.4,1.1,2.4,3.2c2.5,0.5,6.7,1.1,6.7-2.4c-1.4,0-1.6-0.1-1.6-1.6c4.7-4.9-3.6-9.4-3.6-11.8
			c-1.7-0.6-5.1-4.2-2.7-2.8c2,1.1,9.6,3.5,6.6-1.5c0.2-0.1,0.3-0.2,0.4-0.4c0.8,0.6,4.3,4.2,4.3,0.8c1,0,4.7-2.4,1.6-2.4
			c0.3-1.8,0.2-3.3,0.4-4.3c5,2.7,2.2-1.8,4.7-3.5c0,3.3,2.7-1.6,4.3-1.6c1.9-2.9,6.4-0.6,7.5-4c-2.4-0.8-2-6.8-2-9.1
			c2.9,0.5,6.1-3.9,6.6-0.9c0.2,1.2,0.3,4.4,0.9,4.8c4.3,2.3,3.2-1.3,3.2-3.5c-1.4,0-3.4-5.1-3.6-7.5c-1.2,0.2-3.1,0.7-3.6,1.6
			c-4.3,0-7.2-1.6-10.6-1.6c-0.3-0.5-4.4-5.1-4-5.1c-2.4-4.2,2.4-2.9,3.2-3.1c0-3.9,16.3-3.2,17-9.5c-5.3,0,5.5-9.1,5.5-9.1
			c3.6-3.1,5.5-5.8,10.1-6.1c1.9-0.1,23.1-6,23.1-3.3c2.1,0.1,15.4,0,15.4,1.6c2.1,0,6.8,2.3,8.4,1.5c2.6-1.4,13.3,3.2,13.3,6.8
			c-5,0-12,1.2-18.6,1.2c0,1.5,0.7,0.1,0,1.6c2.3,0,6.3,5.9,5.9,7.9c3.2,0.1,4.5-2.4,6.7-2.4c0,2.7,3.2,3.2,3.9,0
			c-2.4,0-1.2-3.5-0.8-3.5c1.6-2.9,4.9-0.1,6.4-3.4c31.3,37.2,51.7,84,55.9,135.3C538.3,280.6,534.3,279.7,532.9,279.2z"/>
	</g>
</g>
</svg>
